<?xml version="1.0" encoding="UTF-8"?>
<!--Generator: Apple Native CoreSVG 149-->
<!DOCTYPE svg
PUBLIC "-//W3C//DTD SVG 1.1//EN"
       "http://www.w3.org/Graphics/SVG/1.1/DTD/svg11.dtd">
<svg version="1.1" xmlns="http://www.w3.org/2000/svg" xmlns:xlink="http://www.w3.org/1999/xlink" width="3300" height="2200">
 <!--glyph: "uni100AEE.medium", point size: 100.000000, font version: "Version 16.0d18e1", template writer version: "8"-->
 <g id="Notes">
  <rect height="2200" id="artboard" style="fill:white;opacity:1" width="3300" x="0" y="0"/>
  <line id="" style="fill:none;stroke:black;opacity:1;stroke-width:0.5;" x1="263" x2="3036" y1="292" y2="292"/>
  <text style="stroke:none;fill:black;font-family:-apple-system,&quot;SF Pro Display&quot;,&quot;SF Pro Text&quot;,Helvetica,sans-serif;font-weight:bold;" transform="matrix(1 0 0 1 263 322)">Weight/Scale Variations</text>
  <text style="stroke:none;fill:black;font-family:-apple-system,&quot;SF Pro Display&quot;,&quot;SF Pro Text&quot;,Helvetica,sans-serif;text-anchor:middle;" transform="matrix(1 0 0 1 559.711 322)">Ultralight</text>
  <text style="stroke:none;fill:black;font-family:-apple-system,&quot;SF Pro Display&quot;,&quot;SF Pro Text&quot;,Helvetica,sans-serif;text-anchor:middle;" transform="matrix(1 0 0 1 856.422 322)">Thin</text>
  <text style="stroke:none;fill:black;font-family:-apple-system,&quot;SF Pro Display&quot;,&quot;SF Pro Text&quot;,Helvetica,sans-serif;text-anchor:middle;" transform="matrix(1 0 0 1 1153.13 322)">Light</text>
  <text style="stroke:none;fill:black;font-family:-apple-system,&quot;SF Pro Display&quot;,&quot;SF Pro Text&quot;,Helvetica,sans-serif;text-anchor:middle;" transform="matrix(1 0 0 1 1449.84 322)">Regular</text>
  <text style="stroke:none;fill:black;font-family:-apple-system,&quot;SF Pro Display&quot;,&quot;SF Pro Text&quot;,Helvetica,sans-serif;text-anchor:middle;" transform="matrix(1 0 0 1 1746.56 322)">Medium</text>
  <text style="stroke:none;fill:black;font-family:-apple-system,&quot;SF Pro Display&quot;,&quot;SF Pro Text&quot;,Helvetica,sans-serif;text-anchor:middle;" transform="matrix(1 0 0 1 2043.27 322)">Semibold</text>
  <text style="stroke:none;fill:black;font-family:-apple-system,&quot;SF Pro Display&quot;,&quot;SF Pro Text&quot;,Helvetica,sans-serif;text-anchor:middle;" transform="matrix(1 0 0 1 2339.98 322)">Bold</text>
  <text style="stroke:none;fill:black;font-family:-apple-system,&quot;SF Pro Display&quot;,&quot;SF Pro Text&quot;,Helvetica,sans-serif;text-anchor:middle;" transform="matrix(1 0 0 1 2636.69 322)">Heavy</text>
  <text style="stroke:none;fill:black;font-family:-apple-system,&quot;SF Pro Display&quot;,&quot;SF Pro Text&quot;,Helvetica,sans-serif;text-anchor:middle;" transform="matrix(1 0 0 1 2933.4 322)">Black</text>
  <line id="" style="fill:none;stroke:black;opacity:1;stroke-width:0.5;" x1="263" x2="3036" y1="1903" y2="1903"/>
  <g id="" transform="matrix(1 0 0 1 263 1933)">
   <path d="M9.24805 0.830078C13.5547 0.830078 17.1387-2.74414 17.1387-7.05078C17.1387-11.3574 13.5449-14.9316 9.23828-14.9316C4.94141-14.9316 1.36719-11.3574 1.36719-7.05078C1.36719-2.74414 4.95117 0.830078 9.24805 0.830078ZM9.24805-0.654297C5.70312-0.654297 2.87109-3.49609 2.87109-7.05078C2.87109-10.6055 5.69336-13.4473 9.23828-13.4473C12.793-13.4473 15.6348-10.6055 15.6445-7.05078C15.6543-3.49609 12.8027-0.654297 9.24805-0.654297ZM6.39648-6.31836L8.50586-6.31836L8.50586-4.19922C8.50586-3.75977 8.79883-3.45703 9.22852-3.45703C9.67773-3.45703 9.9707-3.75977 9.9707-4.19922L9.9707-6.31836L12.0996-6.31836C12.5391-6.31836 12.8418-6.61133 12.8418-7.04102C12.8418-7.48047 12.5391-7.7832 12.0996-7.7832L9.9707-7.7832L9.9707-9.89258C9.9707-10.3418 9.67773-10.6445 9.22852-10.6445C8.79883-10.6445 8.50586-10.3418 8.50586-9.89258L8.50586-7.7832L6.39648-7.7832C5.94727-7.7832 5.64453-7.48047 5.64453-7.04102C5.64453-6.61133 5.94727-6.31836 6.39648-6.31836Z"/>
  </g>
  <g id="" transform="matrix(1 0 0 1 281.506 1933)">
   <path d="M11.709 2.91016C17.1582 2.91016 21.6699-1.61133 21.6699-7.05078C21.6699-12.5 17.1484-17.0117 11.6992-17.0117C6.25977-17.0117 1.74805-12.5 1.74805-7.05078C1.74805-1.61133 6.26953 2.91016 11.709 2.91016ZM11.709 1.25C7.09961 1.25 3.41797-2.44141 3.41797-7.05078C3.41797-11.6602 7.08984-15.3516 11.6992-15.3516C16.3086-15.3516 20-11.6602 20.0098-7.05078C20.0195-2.44141 16.3184 1.25 11.709 1.25ZM7.98828-6.23047L10.8789-6.23047L10.8789-3.32031C10.8789-2.83203 11.2109-2.5 11.6895-2.5C12.1777-2.5 12.5195-2.83203 12.5195-3.32031L12.5195-6.23047L15.4297-6.23047C15.918-6.23047 16.25-6.5625 16.25-7.04102C16.25-7.5293 15.918-7.87109 15.4297-7.87109L12.5195-7.87109L12.5195-10.7617C12.5195-11.2695 12.1777-11.6016 11.6895-11.6016C11.2109-11.6016 10.8789-11.2598 10.8789-10.7617L10.8789-7.87109L7.98828-7.87109C7.48047-7.87109 7.14844-7.5293 7.14844-7.04102C7.14844-6.5625 7.49023-6.23047 7.98828-6.23047Z"/>
  </g>
  <g id="" transform="matrix(1 0 0 1 304.924 1933)">
   <path d="M14.9707 5.66406C21.9336 5.66406 27.6953-0.0976562 27.6953-7.05078C27.6953-14.0137 21.9238-19.7754 14.9609-19.7754C8.00781-19.7754 2.25586-14.0137 2.25586-7.05078C2.25586-0.0976562 8.01758 5.66406 14.9707 5.66406ZM14.9707 3.84766C8.93555 3.84766 4.08203-1.01562 4.08203-7.05078C4.08203-13.0957 8.92578-17.9492 14.9609-17.9492C21.0059-17.9492 25.8594-13.0957 25.8691-7.05078C25.8789-1.01562 21.0156 3.84766 14.9707 3.84766ZM10.0586-6.14258L14.0625-6.14258L14.0625-2.12891C14.0625-1.5918 14.4336-1.2207 14.9512-1.2207C15.4883-1.2207 15.8594-1.5918 15.8594-2.12891L15.8594-6.14258L19.8828-6.14258C20.4102-6.14258 20.791-6.51367 20.791-7.03125C20.791-7.56836 20.4199-7.94922 19.8828-7.94922L15.8594-7.94922L15.8594-11.9531C15.8594-12.5098 15.4883-12.8809 14.9512-12.8809C14.4336-12.8809 14.0625-12.5 14.0625-11.9531L14.0625-7.94922L10.0586-7.94922C9.50195-7.94922 9.13086-7.56836 9.13086-7.03125C9.13086-6.51367 9.51172-6.14258 10.0586-6.14258Z"/>
  </g>
  <text style="stroke:none;fill:black;font-family:-apple-system,&quot;SF Pro Display&quot;,&quot;SF Pro Text&quot;,Helvetica,sans-serif;font-weight:bold;" transform="matrix(1 0 0 1 263 1953)">Design Variations</text>
  <text style="stroke:none;fill:black;font-family:-apple-system,&quot;SF Pro Display&quot;,&quot;SF Pro Text&quot;,Helvetica,sans-serif;" transform="matrix(1 0 0 1 263 1971)">Symbols are supported in up to nine weights and three scales.</text>
  <text style="stroke:none;fill:black;font-family:-apple-system,&quot;SF Pro Display&quot;,&quot;SF Pro Text&quot;,Helvetica,sans-serif;" transform="matrix(1 0 0 1 263 1989)">For optimal layout with text and other symbols, vertically align</text>
  <text style="stroke:none;fill:black;font-family:-apple-system,&quot;SF Pro Display&quot;,&quot;SF Pro Text&quot;,Helvetica,sans-serif;" transform="matrix(1 0 0 1 263 2007)">symbols with the adjacent text.</text>
  <line id="" style="fill:none;stroke:#00AEEF;stroke-width:0.5;opacity:1.0;" x1="776" x2="776" y1="1919" y2="1933"/>
  <g id="" transform="matrix(1 0 0 1 776 1933)">
   <path d="M3.31055 0.126953C3.82812 0.126953 4.08203-0.0683594 4.26758-0.605469L5.52734-4.0625L11.2891-4.0625L12.5488-0.605469C12.7344-0.0683594 12.9883 0.126953 13.4961 0.126953C14.0137 0.126953 14.3457-0.185547 14.3457-0.673828C14.3457-0.839844 14.3164-0.986328 14.2383-1.20117L9.6582-13.3887C9.43359-13.9941 9.0332-14.2871 8.4082-14.2871C7.80273-14.2871 7.39258-13.9941 7.17773-13.3984L2.59766-1.19141C2.51953-0.976562 2.49023-0.830078 2.49023-0.664062C2.49023-0.175781 2.80273 0.126953 3.31055 0.126953ZM6.00586-5.53711L8.37891-12.1094L8.42773-12.1094L10.8008-5.53711Z"/>
  </g>
  <line id="" style="fill:none;stroke:#00AEEF;stroke-width:0.5;opacity:1.0;" x1="792.836" x2="792.836" y1="1919" y2="1933"/>
  <text style="stroke:none;fill:black;font-family:-apple-system,&quot;SF Pro Display&quot;,&quot;SF Pro Text&quot;,Helvetica,sans-serif;font-weight:bold;" transform="matrix(1 0 0 1 776 1953)">Margins</text>
  <text style="stroke:none;fill:black;font-family:-apple-system,&quot;SF Pro Display&quot;,&quot;SF Pro Text&quot;,Helvetica,sans-serif;" transform="matrix(1 0 0 1 776 1971)">Leading and trailing margins on the left and right side of each symbol</text>
  <text style="stroke:none;fill:black;font-family:-apple-system,&quot;SF Pro Display&quot;,&quot;SF Pro Text&quot;,Helvetica,sans-serif;" transform="matrix(1 0 0 1 776 1989)">can be adjusted by modifying the x-location of the margin guidelines.</text>
  <text style="stroke:none;fill:black;font-family:-apple-system,&quot;SF Pro Display&quot;,&quot;SF Pro Text&quot;,Helvetica,sans-serif;" transform="matrix(1 0 0 1 776 2007)">Modifications are automatically applied proportionally to all</text>
  <text style="stroke:none;fill:black;font-family:-apple-system,&quot;SF Pro Display&quot;,&quot;SF Pro Text&quot;,Helvetica,sans-serif;" transform="matrix(1 0 0 1 776 2025)">scales and weights.</text>
  <g id="" transform="matrix(1 0 0 1 1289 1933)">
   <path d="M2.8418 1.86523L4.54102 3.57422C5.40039 4.44336 6.38672 4.38477 7.31445 3.35938L17.4902-7.85156C17.7539-7.76367 18.0273-7.7832 18.3398-7.8418L19.4043-8.03711L20.0684-7.36328L20.0293-6.80664C19.9902-6.30859 20.1172-5.92773 20.6055-5.44922L21.3672-4.70703C21.8457-4.22852 22.4609-4.19922 22.9297-4.66797L25.8398-7.58789C26.3086-8.05664 26.2891-8.65234 25.8105-9.13086L25.0391-9.89258C24.5605-10.3711 24.1895-10.5273 23.7109-10.4883L23.1348-10.4395L22.4902-11.0742L22.7344-12.1973C22.8613-12.7637 22.7051-13.2031 22.1191-13.7891L19.9219-15.9766C16.582-19.2969 12.1484-19.2188 9.25781-16.3281C8.83789-15.918 8.80859-15.3418 9.04297-14.9512C9.27734-14.5898 9.73633-14.3555 10.3809-14.5215C11.8457-14.8633 13.3691-14.9219 14.7949-13.9844L14.209-12.5293C14.0137-12.0508 13.9844-11.6504 14.1113-11.2891L3.04688-0.898438C2.06055 0.0195312 1.98242 0.996094 2.8418 1.86523ZM10.752-15.957C13.1836-17.7344 16.4746-17.4316 18.7012-15.2051L21.1328-12.793C21.3672-12.5586 21.4062-12.373 21.3379-12.0312L21.0156-10.5469L22.5195-9.0625L23.5059-9.12109C23.7598-9.13086 23.8379-9.11133 24.0332-8.91602L24.6094-8.33984L22.168-5.89844L21.5918-6.47461C21.3965-6.66992 21.3672-6.74805 21.377-7.01172L21.4453-7.98828L19.9512-9.47266L18.4277-9.21875C18.1055-9.15039 17.959-9.17969 17.7148-9.41406L15.7129-11.416C15.459-11.6504 15.4297-11.8164 15.5859-12.1875L16.4648-14.2773C14.9023-15.7324 12.8711-16.3574 10.8398-15.7617C10.6836-15.7227 10.625-15.8496 10.752-15.957ZM5.27344 2.30469L4.10156 1.14258C3.63281 0.683594 3.74023 0.341797 4.14062-0.0195312L14.9512-10.1953L16.416-8.71094L6.42578 2.27539C6.07422 2.67578 5.74219 2.77344 5.27344 2.30469Z"/>
  </g>
  <text style="stroke:none;fill:black;font-family:-apple-system,&quot;SF Pro Display&quot;,&quot;SF Pro Text&quot;,Helvetica,sans-serif;font-weight:bold;" transform="matrix(1 0 0 1 1289 1953)">Exporting</text>
  <text style="stroke:none;fill:black;font-family:-apple-system,&quot;SF Pro Display&quot;,&quot;SF Pro Text&quot;,Helvetica,sans-serif;" transform="matrix(1 0 0 1 1289 1971)">Symbols should be outlined when exporting to ensure the</text>
  <text style="stroke:none;fill:black;font-family:-apple-system,&quot;SF Pro Display&quot;,&quot;SF Pro Text&quot;,Helvetica,sans-serif;" transform="matrix(1 0 0 1 1289 1989)">design is preserved when submitting to Xcode.</text>
  <text id="template-version" style="stroke:none;fill:black;font-family:-apple-system,&quot;SF Pro Display&quot;,&quot;SF Pro Text&quot;,Helvetica,sans-serif;text-anchor:end;" transform="matrix(1 0 0 1 3036 1933)">Template v.2.0</text>
  <text style="stroke:none;fill:black;font-family:-apple-system,&quot;SF Pro Display&quot;,&quot;SF Pro Text&quot;,Helvetica,sans-serif;text-anchor:end;" transform="matrix(1 0 0 1 3036 1951)">Requires Xcode 12 or greater</text>
  <text style="stroke:none;fill:black;font-family:-apple-system,&quot;SF Pro Display&quot;,&quot;SF Pro Text&quot;,Helvetica,sans-serif;text-anchor:end;" transform="matrix(1 0 0 1 3036 1969)">Generated from bolt.fill.batteryblock</text>
  <text style="stroke:none;fill:black;font-family:-apple-system,&quot;SF Pro Display&quot;,&quot;SF Pro Text&quot;,Helvetica,sans-serif;text-anchor:end;" transform="matrix(1 0 0 1 3036 1987)">Typeset at 100 points</text>
  <text style="stroke:none;fill:black;font-family:-apple-system,&quot;SF Pro Display&quot;,&quot;SF Pro Text&quot;,Helvetica,sans-serif;" transform="matrix(1 0 0 1 263 726)">Small</text>
  <text style="stroke:none;fill:black;font-family:-apple-system,&quot;SF Pro Display&quot;,&quot;SF Pro Text&quot;,Helvetica,sans-serif;" transform="matrix(1 0 0 1 263 1156)">Medium</text>
  <text style="stroke:none;fill:black;font-family:-apple-system,&quot;SF Pro Display&quot;,&quot;SF Pro Text&quot;,Helvetica,sans-serif;" transform="matrix(1 0 0 1 263 1586)">Large</text>
 </g>
 <g id="Guides">
  <g id="H-reference" style="fill:#27AAE1;stroke:none;" transform="matrix(1 0 0 1 339 696)">
   <path d="M0.976562 0L3.66211 0L12.9883-24.4629L45.752-24.4629L55.127 0L57.7637 0L30.6152-70.459L28.125-70.459ZM29.3457-67.1387L29.4434-67.1387L44.873-26.709L13.8672-26.709Z"/>
  </g>
  <line id="Baseline-S" style="fill:none;stroke:#27AAE1;opacity:1;stroke-width:0.5;" x1="263" x2="3036" y1="696" y2="696"/>
  <line id="Capline-S" style="fill:none;stroke:#27AAE1;opacity:1;stroke-width:0.5;" x1="263" x2="3036" y1="625.541" y2="625.541"/>
  <g id="H-reference" style="fill:#27AAE1;stroke:none;" transform="matrix(1 0 0 1 339 1126)">
   <path d="M0.976562 0L3.66211 0L12.9883-24.4629L45.752-24.4629L55.127 0L57.7637 0L30.6152-70.459L28.125-70.459ZM29.3457-67.1387L29.4434-67.1387L44.873-26.709L13.8672-26.709Z"/>
  </g>
  <line id="Baseline-M" style="fill:none;stroke:#27AAE1;opacity:1;stroke-width:0.5;" x1="263" x2="3036" y1="1126" y2="1126"/>
  <line id="Capline-M" style="fill:none;stroke:#27AAE1;opacity:1;stroke-width:0.5;" x1="263" x2="3036" y1="1055.54" y2="1055.54"/>
  <g id="H-reference" style="fill:#27AAE1;stroke:none;" transform="matrix(1 0 0 1 339 1556)">
   <path d="M0.976562 0L3.66211 0L12.9883-24.4629L45.752-24.4629L55.127 0L57.7637 0L30.6152-70.459L28.125-70.459ZM29.3457-67.1387L29.4434-67.1387L44.873-26.709L13.8672-26.709Z"/>
  </g>
  <line id="Baseline-L" style="fill:none;stroke:#27AAE1;opacity:1;stroke-width:0.5;" x1="263" x2="3036" y1="1556" y2="1556"/>
  <line id="Capline-L" style="fill:none;stroke:#27AAE1;opacity:1;stroke-width:0.5;" x1="263" x2="3036" y1="1485.54" y2="1485.54"/>
  <line id="left-margin" style="fill:none;stroke:#00AEEF;stroke-width:0.5;opacity:1.0;" x1="1379.82" x2="1379.82" y1="1030.79" y2="1150.12"/>
  <line id="right-margin" style="fill:none;stroke:#00AEEF;stroke-width:0.5;opacity:1.0;" x1="1519.86" x2="1519.86" y1="1030.79" y2="1150.12"/>
 </g>
 <g id="Symbols">
  <g id="Black-L" transform="matrix(1 0 0 1 2841.51 1556)">
   <path d="M39.9902 26.5137L143.799 26.5137C159.082 26.5137 167.725 17.8711 167.725 2.68555L167.725-55.2246C167.725-70.459 159.082-79.0527 143.799-79.0527L138.086-79.0527L138.086-85.2051C138.086-92.5781 133.838-96.875 126.514-96.875L112.354-96.875C105.078-96.875 100.781-92.5781 100.781-85.2051L100.781-79.0527L82.9102-79.0527L82.9102-85.2051C82.9102-92.5781 78.6621-96.875 71.3867-96.875L57.1777-96.875C49.9023-96.875 45.6543-92.5781 45.6543-85.2051L45.6543-79.0527L39.9902-79.0527C24.7559-79.0527 16.0645-70.459 16.0645-55.2246L16.0645 2.68555C16.0645 17.8711 24.7559 26.5137 39.9902 26.5137ZM42.6758 6.29883C38.4766 6.29883 36.3281 4.39453 36.3281-0.146484L36.3281-52.3926C36.3281-56.9336 38.4766-58.8379 42.6758-58.8379L141.064-58.8379C145.312-58.8379 147.461-56.9336 147.461-52.3926L147.461-0.146484C147.461 4.39453 145.312 6.29883 141.064 6.29883Z"/>
  </g>
  <g id="Heavy-L" transform="matrix(1 0 0 1 2545.23 1556)">
   <path d="M38.8184 25.4883L144.092 25.4883C158.74 25.4883 166.846 17.4316 166.846 2.88086L166.846-55.8105C166.846-70.3613 158.74-78.4668 144.092-78.4668L137.793-78.4668L137.793-85.2051C137.793-91.8945 133.936-95.8496 127.246-95.8496L111.865-95.8496C105.225-95.8496 101.318-91.8945 101.318-85.2051L101.318-78.4668L81.4941-78.4668L81.4941-85.2051C81.4941-91.8945 77.6367-95.8496 70.9473-95.8496L55.5664-95.8496C48.9258-95.8496 45.0195-91.8945 45.0195-85.2051L45.0195-78.4668L38.8184-78.4668C24.2188-78.4668 16.0645-70.3613 16.0645-55.8105L16.0645 2.88086C16.0645 17.4316 24.2188 25.4883 38.8184 25.4883ZM40.918 8.00781C36.084 8.00781 33.5938 5.71289 33.5938 0.585938L33.5938-53.5156C33.5938-58.6426 36.084-60.9375 40.918-60.9375L141.943-60.9375C146.777-60.9375 149.316-58.6426 149.316-53.5156L149.316 0.585938C149.316 5.71289 146.777 8.00781 141.943 8.00781Z"/>
  </g>
  <g id="Bold-L" transform="matrix(1 0 0 1 2249.01 1556)">
   <path d="M37.5 24.3652L144.385 24.3652C158.35 24.3652 165.869 16.8945 165.869 3.07617L165.869-56.4453C165.869-70.2637 158.35-77.7832 144.385-77.7832L137.5-77.7832L137.5-85.2539C137.5-91.2109 134.033-94.7266 128.076-94.7266L111.377-94.7266C105.371-94.7266 101.953-91.2109 101.953-85.2539L101.953-77.7832L79.8828-77.7832L79.8828-85.2539C79.8828-91.2109 76.4648-94.7266 70.459-94.7266L53.7598-94.7266C47.8027-94.7266 44.3359-91.2109 44.3359-85.2539L44.3359-77.7832L37.5-77.7832C23.6328-77.7832 16.0645-70.3125 16.0645-56.4453L16.0645 3.07617C16.0645 16.8945 23.6328 24.3652 37.5 24.3652ZM38.9648 9.91211C33.4473 9.91211 30.5176 7.17773 30.5176 1.41602L30.5176-54.7852C30.5176-60.5469 33.4473-63.3301 38.9648-63.3301L142.969-63.3301C148.389-63.3301 151.416-60.5469 151.416-54.7852L151.416 1.41602C151.416 7.17773 148.389 9.91211 142.969 9.91211Z"/>
  </g>
  <g id="Semibold-L" transform="matrix(1 0 0 1 1952.64 1556)">
   <path d="M36.6211 23.584L144.629 23.584C158.057 23.584 165.186 16.5039 165.186 3.17383L165.186-56.8848C165.186-70.2148 158.057-77.2949 144.629-77.2949L137.256-77.2949L137.256-85.2539C137.256-90.7227 134.131-93.9453 128.662-93.9453L110.986-93.9453C105.518-93.9453 102.393-90.7227 102.393-85.2539L102.393-77.2949L78.7598-77.2949L78.7598-85.2539C78.7598-90.7227 75.6348-93.9453 70.166-93.9453L52.5391-93.9453C47.0215-93.9453 43.8965-90.7227 43.8965-85.2539L43.8965-77.2949L36.6211-77.2949C23.1934-77.2949 16.0645-70.2148 16.0645-56.8848L16.0645 3.17383C16.0645 16.5527 23.1934 23.584 36.6211 23.584ZM37.5977 11.2793C31.6406 11.2793 28.418 8.20312 28.418 1.95312L28.418-55.6641C28.418-61.8652 31.6406-64.9414 37.5977-64.9414L143.652-64.9414C149.512-64.9414 152.832-61.8652 152.832-55.6641L152.832 1.95312C152.832 8.20312 149.512 11.2793 143.652 11.2793Z"/>
  </g>
  <g id="Medium-L" transform="matrix(1 0 0 1 1656.2 1556)">
   <path d="M35.9375 22.998L144.775 22.998C157.861 22.998 164.648 16.2109 164.648 3.27148L164.648-57.2266C164.648-70.166 157.861-76.9531 144.775-76.9531L137.109-76.9531L137.109-85.2539C137.109-90.332 134.18-93.3105 129.053-93.3105L110.742-93.3105C105.615-93.3105 102.686-90.332 102.686-85.2539L102.686-76.9531L77.9297-76.9531L77.9297-85.2539C77.9297-90.332 75.0488-93.3105 69.9219-93.3105L51.5625-93.3105C46.4355-93.3105 43.5547-90.332 43.5547-85.2539L43.5547-76.9531L35.9375-76.9531C22.9004-76.9531 16.0645-70.2148 16.0645-57.2266L16.0645 3.27148C16.0645 16.2598 22.9004 22.998 35.9375 22.998ZM36.5723 12.2559C30.2246 12.2559 26.8066 8.98438 26.8066 2.39258L26.8066-56.3477C26.8066-62.8906 30.2246-66.2109 36.5723-66.2109L144.141-66.2109C150.391-66.2109 153.906-62.8906 153.906-56.3477L153.906 2.39258C153.906 8.98438 150.391 12.2559 144.141 12.2559Z"/>
  </g>
  <g id="Regular-L" transform="matrix(1 0 0 1 1359.81 1556)">
   <path d="M35.0586 22.2168L144.971 22.2168C157.617 22.2168 164.014 15.8691 164.014 3.41797L164.014-57.666C164.014-70.0684 157.617-76.4648 144.971-76.4648L136.914-76.4648L136.914-85.2539C136.914-89.8438 134.277-92.5293 129.639-92.5293L110.4-92.5293C105.713-92.5293 103.125-89.8438 103.125-85.2539L103.125-76.4648L76.8555-76.4648L76.8555-85.2539C76.8555-89.8438 74.2188-92.5293 69.5801-92.5293L50.3418-92.5293C45.6543-92.5293 43.0664-89.8438 43.0664-85.2539L43.0664-76.4648L35.0586-76.4648C22.4609-76.4648 16.0645-70.166 16.0645-57.666L16.0645 3.41797C16.0645 15.918 22.4609 22.2168 35.0586 22.2168ZM35.2539 13.5742C28.418 13.5742 24.707 9.96094 24.707 2.97852L24.707-57.1777C24.707-64.209 28.418-67.8223 35.2539-67.8223L144.824-67.8223C151.514-67.8223 155.322-64.209 155.322-57.1777L155.322 2.97852C155.322 9.96094 151.514 13.5742 144.824 13.5742Z"/>
  </g>
  <g id="Light-L" transform="matrix(1 0 0 1 1063.56 1556)">
   <path d="M34.0332 21.4355L145.117 21.4355C157.031 21.4355 163.086 15.2344 163.086 3.56445L163.086-57.7637C163.086-69.4336 157.031-75.6348 145.117-75.6348L137.061-75.6348L137.061-84.9609C137.061-89.209 134.668-91.6992 130.273-91.6992L110.107-91.6992C105.664-91.6992 103.271-89.209 103.271-84.9609L103.271-75.6348L75.8301-75.6348L75.8301-84.9609C75.8301-89.209 73.4375-91.6992 69.043-91.6992L48.877-91.6992C44.4336-91.6992 42.041-89.209 42.041-84.9609L42.041-75.6348L34.0332-75.6348C22.168-75.6348 16.0645-69.5312 16.0645-57.7637L16.0645 3.56445C16.0645 15.3809 22.168 21.4355 34.0332 21.4355ZM34.1797 14.7949C26.709 14.7949 22.7051 10.8398 22.7051 3.22266L22.7051-57.4219C22.7051-65.0391 26.709-68.9941 34.1797-68.9941L144.971-68.9941C152.295-68.9941 156.494-65.0391 156.494-57.4219L156.494 3.22266C156.494 10.8398 152.295 14.7949 144.971 14.7949Z"/>
  </g>
  <g id="Thin-L" transform="matrix(1 0 0 1 767.433 1556)">
   <path d="M32.666 20.3613L145.312 20.3613C156.201 20.3613 161.914 14.4531 161.914 3.75977L161.914-57.9102C161.914-68.6035 156.201-74.5117 145.312-74.5117L137.256-74.5117L137.256-84.5703C137.256-88.3301 135.205-90.5762 131.104-90.5762L109.717-90.5762C105.615-90.5762 103.516-88.3301 103.516-84.5703L103.516-74.5117L74.4629-74.5117L74.4629-84.5703C74.4629-88.3301 72.4121-90.5762 68.3105-90.5762L46.9238-90.5762C42.7734-90.5762 40.7227-88.3301 40.7227-84.5703L40.7227-74.5117L32.666-74.5117C21.7773-74.5117 16.0645-68.75 16.0645-57.9102L16.0645 3.75977C16.0645 14.6484 21.7773 20.3613 32.666 20.3613ZM32.8125 16.4062C24.4141 16.4062 19.9707 12.0117 19.9707 3.56445L19.9707-57.7148C19.9707-66.1621 24.4141-70.5566 32.8125-70.5566L145.166-70.5566C153.32-70.5566 158.008-66.1621 158.008-57.7148L158.008 3.56445C158.008 12.0117 153.32 16.4062 145.166 16.4062Z"/>
  </g>
  <g id="Ultralight-L" transform="matrix(1 0 0 1 471.015 1556)">
   <path d="M31.9824 19.7754L145.41 19.7754C155.811 19.7754 161.328 14.0625 161.328 3.85742L161.328-58.0078C161.328-68.2129 155.811-73.9258 145.41-73.9258L137.402-73.9258L137.402-84.375C137.402-87.8906 135.449-89.9902 131.494-89.9902L109.473-89.9902C105.566-89.9902 103.613-87.8906 103.613-84.375L103.613-73.9258L73.7793-73.9258L73.7793-84.375C73.7793-87.8906 71.875-89.9902 67.9199-89.9902L45.8984-89.9902C41.9434-89.9902 40.0391-87.8906 40.0391-84.375L40.0391-73.9258L31.9824-73.9258C21.582-73.9258 16.0645-68.3594 16.0645-58.0078L16.0645 3.85742C16.0645 14.2578 21.582 19.7754 31.9824 19.7754ZM32.1289 17.2363C23.1934 17.2363 18.6035 12.6465 18.6035 3.75977L18.6035-57.8613C18.6035-66.748 23.1934-71.3867 32.1289-71.3867L145.264-71.3867C153.857-71.3867 158.789-66.748 158.789-57.8613L158.789 3.75977C158.789 12.6465 153.857 17.2363 145.264 17.2363Z"/>
  </g>
  <g id="Black-M" transform="matrix(1 0 0 1 2861.84 1126)">
   <path d="M31.9824 13.5742L111.133 13.5742C123.389 13.5742 130.664 6.29883 130.664-5.95703L130.664-50.0488C130.664-62.3047 123.389-69.5801 111.133-69.5801L107.471-69.5801L107.471-73.7793C107.471-80.1758 103.76-83.9355 97.4121-83.9355L87.5488-83.9355C81.1523-83.9355 77.4414-80.1758 77.4414-73.7793L77.4414-69.5801L65.6738-69.5801L65.6738-73.7793C65.6738-80.1758 61.9629-83.9355 55.6152-83.9355L45.7031-83.9355C39.3555-83.9355 35.6445-80.1758 35.6445-73.7793L35.6445-69.5801L31.9824-69.5801C19.7266-69.5801 12.4512-62.3047 12.4512-50.0488L12.4512-5.95703C12.4512 6.29883 19.7266 13.5742 31.9824 13.5742ZM34.9121-4.73633C32.0801-4.73633 30.7617-5.81055 30.7617-8.88672L30.7617-47.1191C30.7617-50.1953 32.0801-51.2695 34.9121-51.2695L108.203-51.2695C111.035-51.2695 112.402-50.1953 112.402-47.1191L112.402-8.88672C112.402-5.81055 111.035-4.73633 108.203-4.73633Z"/>
  </g>
  <g id="Heavy-M" transform="matrix(1 0 0 1 2565.5 1126)">
   <path d="M31.0059 12.6465L111.426 12.6465C123.193 12.6465 129.932 5.9082 129.932-5.81055L129.932-50.6348C129.932-62.3535 123.193-69.1406 111.426-69.1406L107.129-69.1406L107.129-73.877C107.129-79.6387 103.76-83.0566 98.0469-83.0566L87.1094-83.0566C81.3477-83.0566 78.0273-79.6387 78.0273-73.877L78.0273-69.1406L64.3555-69.1406L64.3555-73.877C64.3555-79.6387 61.0352-83.0566 55.2734-83.0566L44.3359-83.0566C38.5742-83.0566 35.2539-79.6387 35.2539-73.877L35.2539-69.1406L31.0059-69.1406C19.2383-69.1406 12.4512-62.3535 12.4512-50.6348L12.4512-5.81055C12.4512 5.9082 19.2383 12.6465 31.0059 12.6465ZM33.252-3.17383C29.9316-3.17383 28.2715-4.63867 28.2715-8.1543L28.2715-48.291C28.2715-51.8555 29.9316-53.2715 33.252-53.2715L109.131-53.2715C112.451-53.2715 114.111-51.8555 114.111-48.291L114.111-8.1543C114.111-4.63867 112.451-3.17383 109.131-3.17383Z"/>
  </g>
  <g id="Bold-M" transform="matrix(1 0 0 1 2269.18 1126)">
   <path d="M29.8828 11.6699L111.719 11.6699C122.949 11.6699 129.15 5.46875 129.15-5.66406L129.15-51.2695C129.15-62.4512 122.949-68.6035 111.719-68.6035L106.738-68.6035L106.738-73.9746C106.738-79.0527 103.809-82.0312 98.7793-82.0312L86.6211-82.0312C81.5918-82.0312 78.6621-79.0527 78.6621-73.9746L78.6621-68.6035L62.8906-68.6035L62.8906-73.9746C62.8906-79.0527 59.9609-82.0312 54.9316-82.0312L42.7734-82.0312C37.7441-82.0312 34.8145-79.0527 34.8145-73.9746L34.8145-68.6035L29.8828-68.6035C18.6523-68.6035 12.4512-62.4512 12.4512-51.2695L12.4512-5.66406C12.4512 5.51758 18.6523 11.6699 29.8828 11.6699ZM31.3965-1.41602C27.5391-1.41602 25.5371-3.27148 25.5371-7.32422L25.5371-49.6094C25.5371-53.7109 27.5391-55.5664 31.3965-55.5664L110.205-55.5664C114.014-55.5664 116.064-53.7109 116.064-49.6094L116.064-7.32422C116.064-3.27148 114.014-1.41602 110.205-1.41602Z"/>
  </g>
  <g id="Semibold-M" transform="matrix(1 0 0 1 1972.76 1126)">
   <path d="M29.1016 10.9863L111.914 10.9863C122.803 10.9863 128.564 5.17578 128.564-5.56641L128.564-51.7578C128.564-62.5 122.803-68.2617 111.914-68.2617L106.445-68.2617L106.445-74.0723C106.445-78.6133 103.809-81.3477 99.2676-81.3477L86.2793-81.3477C81.6895-81.3477 79.0527-78.6133 79.0527-74.0723L79.0527-68.2617L61.9141-68.2617L61.9141-74.0723C61.9141-78.6133 59.2285-81.3477 54.6875-81.3477L41.6992-81.3477C37.1582-81.3477 34.5215-78.6133 34.5215-74.0723L34.5215-68.2617L29.1016-68.2617C18.2617-68.2617 12.4512-62.5 12.4512-51.7578L12.4512-5.56641C12.4512 5.22461 18.2617 10.9863 29.1016 10.9863ZM30.127-0.195312C25.8789-0.195312 23.6328-2.34375 23.6328-6.78711L23.6328-50.5371C23.6328-54.9805 25.8789-57.0801 30.127-57.0801L110.889-57.0801C115.088-57.0801 117.383-54.9805 117.383-50.5371L117.383-6.78711C117.383-2.34375 115.088-0.195312 110.889-0.195312Z"/>
  </g>
  <g id="Medium-M" transform="matrix(1 0 0 1 1676.24 1126)">
   <path d="M28.5156 10.4492L112.061 10.4492C122.656 10.4492 128.174 4.98047 128.174-5.46875L128.174-52.0996C128.174-62.5488 122.656-68.0176 112.061-68.0176L106.25-68.0176L106.25-74.1211C106.25-78.3203 103.857-80.8105 99.6094-80.8105L86.0352-80.8105C81.8359-80.8105 79.3945-78.3203 79.3945-74.1211L79.3945-68.0176L61.1328-68.0176L61.1328-74.1211C61.1328-78.3203 58.6914-80.8105 54.4922-80.8105L40.918-80.8105C36.6699-80.8105 34.2773-78.3203 34.2773-74.1211L34.2773-68.0176L28.5156-68.0176C17.9688-68.0176 12.4512-62.5488 12.4512-52.0996L12.4512-5.46875C12.4512 4.98047 17.9688 10.4492 28.5156 10.4492ZM29.1504 0.732422C24.6582 0.732422 22.168-1.61133 22.168-6.34766L22.168-51.2207C22.168-55.957 24.6582-58.252 29.1504-58.252L111.426-58.252C115.918-58.252 118.408-55.957 118.408-51.2207L118.408-6.34766C118.408-1.61133 115.918 0.732422 111.426 0.732422Z"/>
  </g>
  <g id="Regular-M" transform="matrix(1 0 0 1 1379.82 1126)">
   <path d="M27.7832 9.76562L112.256 9.76562C122.51 9.76562 127.588 4.6875 127.588-5.37109L127.588-52.5391C127.588-62.5977 122.51-67.6758 112.256-67.6758L106.006-67.6758L106.006-74.1699C106.006-77.9297 103.857-80.127 100.098-80.127L85.6934-80.127C81.9824-80.127 79.834-77.9297 79.834-74.1699L79.834-67.6758L60.1562-67.6758L60.1562-74.1699C60.1562-77.9297 58.0078-80.127 54.248-80.127L39.8438-80.127C36.084-80.127 33.9355-77.9297 33.9355-74.1699L33.9355-67.6758L27.7832-67.6758C17.5781-67.6758 12.4512-62.6465 12.4512-52.5391L12.4512-5.37109C12.4512 4.73633 17.5781 9.76562 27.7832 9.76562ZM27.8809 1.9043C22.998 1.9043 20.3125-0.683594 20.3125-5.76172L20.3125-52.1484C20.3125-57.1777 22.998-59.8145 27.8809-59.8145L112.158-59.8145C116.992-59.8145 119.727-57.1777 119.727-52.1484L119.727-5.76172C119.727-0.683594 116.992 1.9043 112.158 1.9043Z"/>
  </g>
  <g id="Light-M" transform="matrix(1 0 0 1 1083.5 1126)">
   <path d="M26.8555 9.0332L112.402 9.0332C121.973 9.0332 126.807 4.15039 126.807-5.22461L126.807-52.6367C126.807-62.0117 121.973-66.8945 112.402-66.8945L106.152-66.8945L106.152-73.9258C106.152-77.3438 104.199-79.3945 100.684-79.3945L85.4492-79.3945C81.9336-79.3945 79.9805-77.3438 79.9805-73.9258L79.9805-66.8945L59.2285-66.8945L59.2285-73.9258C59.2285-77.3438 57.2754-79.3945 53.7598-79.3945L38.5254-79.3945C35.0098-79.3945 33.0566-77.3438 33.0566-73.9258L33.0566-66.8945L26.8555-66.8945C17.334-66.8945 12.4512-62.1094 12.4512-52.6367L12.4512-5.22461C12.4512 4.19922 17.334 9.0332 26.8555 9.0332ZM26.9531 2.97852C21.4844 2.97852 18.5059 0.0976562 18.5059-5.56641L18.5059-52.3438C18.5059-57.959 21.4844-60.8887 26.9531-60.8887L112.305-60.8887C117.676-60.8887 120.752-57.959 120.752-52.3438L120.752-5.56641C120.752 0.0976562 117.676 2.97852 112.305 2.97852Z"/>
  </g>
  <g id="Thin-M" transform="matrix(1 0 0 1 787.33 1126)">
   <path d="M25.6348 8.05664L112.598 8.05664C121.24 8.05664 125.732 3.4668 125.732-5.0293L125.732-52.7832C125.732-61.2793 121.24-65.918 112.598-65.918L106.348-65.918L106.348-73.584C106.348-76.5625 104.639-78.3691 101.416-78.3691L85.1074-78.3691C81.8359-78.3691 80.1758-76.5625 80.1758-73.584L80.1758-65.918L58.0078-65.918L58.0078-73.584C58.0078-76.5625 56.3477-78.3691 53.0762-78.3691L36.7676-78.3691C33.5449-78.3691 31.8359-76.5625 31.8359-73.584L31.8359-65.918L25.6348-65.918C16.9922-65.918 12.4512-61.377 12.4512-52.7832L12.4512-5.0293C12.4512 3.56445 16.9922 8.05664 25.6348 8.05664ZM25.7324 4.44336C19.3848 4.44336 16.0645 1.12305 16.0645-5.22461L16.0645-52.5879C16.0645-58.9844 19.3848-62.2559 25.7324-62.2559L112.451-62.2559C118.604-62.2559 122.119-58.9844 122.119-52.5879L122.119-5.22461C122.119 1.12305 118.604 4.44336 112.451 4.44336Z"/>
  </g>
  <g id="Ultralight-M" transform="matrix(1 0 0 1 490.888 1126)">
   <path d="M25 7.56836L112.695 7.56836C120.85 7.56836 125.195 3.125 125.195-4.98047L125.195-52.832C125.195-60.8887 120.85-65.3809 112.695-65.3809L106.445-65.3809L106.445-73.3887C106.445-76.1719 104.883-77.832 101.807-77.832L84.9121-77.832C81.8359-77.832 80.2734-76.1719 80.2734-73.3887L80.2734-65.3809L57.4219-65.3809L57.4219-73.3887C57.4219-76.1719 55.8594-77.832 52.7344-77.832L35.8887-77.832C32.7637-77.832 31.2012-76.1719 31.2012-73.3887L31.2012-65.3809L25-65.3809C16.7969-65.3809 12.4512-61.0352 12.4512-52.832L12.4512-4.98047C12.4512 3.22266 16.7969 7.56836 25 7.56836ZM25.0977 5.17578C18.3594 5.17578 14.8438 1.66016 14.8438-5.07812L14.8438-52.7344C14.8438-59.4727 18.3594-62.9883 25.0977-62.9883L112.549-62.9883C119.043-62.9883 122.803-59.4727 122.803-52.7344L122.803-5.07812C122.803 1.66016 119.043 5.17578 112.549 5.17578Z"/>
  </g>
  <g id="Black-S" transform="matrix(1 0 0 1 2877.35 696)">
   <path d="M25 2.92969L87.1094 2.92969C96.6797 2.92969 102.344-2.73438 102.344-12.3047L102.344-46.875C102.344-56.4453 96.6797-62.1094 87.1094-62.1094L84.1797-62.1094L84.1797-65.4297C84.1797-70.4102 81.2988-73.3398 76.3672-73.3398L68.5547-73.3398C63.623-73.3398 60.7422-70.4102 60.7422-65.4297L60.7422-62.1094L51.3672-62.1094L51.3672-65.4297C51.3672-70.4102 48.4863-73.3398 43.5547-73.3398L35.7422-73.3398C30.8105-73.3398 27.9297-70.4102 27.9297-65.4297L27.9297-62.1094L25-62.1094C15.4297-62.1094 9.76562-56.4453 9.76562-46.875L9.76562-12.3047C9.76562-2.73438 15.4297 2.92969 25 2.92969ZM27.2461-11.2305C25-11.2305 23.9258-12.1094 23.9258-14.5508L23.9258-44.6289C23.9258-47.0703 25-47.9492 27.2461-47.9492L84.8633-47.9492C87.1094-47.9492 88.1836-47.0703 88.1836-44.6289L88.1836-14.5508C88.1836-12.1094 87.1094-11.2305 84.8633-11.2305Z"/>
  </g>
  <g id="Heavy-S" transform="matrix(1 0 0 1 2580.88 696)">
   <path d="M24.3652 2.34375L87.3047 2.34375C96.582 2.34375 101.855-2.97852 101.855-12.207L101.855-47.3145C101.855-56.543 96.582-61.8652 87.3047-61.8652L83.8867-61.8652L83.8867-65.5273C83.8867-70.0684 81.2988-72.7539 76.8066-72.7539L68.2617-72.7539C63.7695-72.7539 61.1328-70.0684 61.1328-65.5273L61.1328-61.8652L50.4883-61.8652L50.4883-65.5273C50.4883-70.0684 47.8516-72.7539 43.3594-72.7539L34.8145-72.7539C30.3223-72.7539 27.7344-70.0684 27.7344-65.5273L27.7344-61.8652L24.3652-61.8652C15.0879-61.8652 9.76562-56.543 9.76562-47.3145L9.76562-12.207C9.76562-2.97852 15.0879 2.34375 24.3652 2.34375ZM26.0742-10.1562C23.5352-10.1562 22.2656-11.2793 22.2656-14.0137L22.2656-45.5078C22.2656-48.2422 23.5352-49.3652 26.0742-49.3652L85.5469-49.3652C88.0859-49.3652 89.4043-48.2422 89.4043-45.5078L89.4043-14.0137C89.4043-11.2793 88.0859-10.1562 85.5469-10.1562Z"/>
  </g>
  <g id="Bold-S" transform="matrix(1 0 0 1 2284.41 696)">
   <path d="M23.6328 1.66016L87.5 1.66016C96.4844 1.66016 101.367-3.22266 101.367-12.1094L101.367-47.8027C101.367-56.6895 96.4844-61.5723 87.5-61.5723L83.5938-61.5723L83.5938-65.6738C83.5938-69.6777 81.25-72.0703 77.2461-72.0703L67.9199-72.0703C63.916-72.0703 61.6211-69.6777 61.6211-65.6738L61.6211-61.5723L49.4629-61.5723L49.4629-65.6738C49.4629-69.6777 47.1191-72.0703 43.1641-72.0703L33.7891-72.0703C29.834-72.0703 27.4902-69.6777 27.4902-65.6738L27.4902-61.5723L23.6328-61.5723C14.6973-61.5723 9.76562-56.6895 9.76562-47.8027L9.76562-12.1094C9.76562-3.22266 14.6973 1.66016 23.6328 1.66016ZM24.8047-8.93555C21.9238-8.93555 20.3613-10.3516 20.3613-13.4277L20.3613-46.4844C20.3613-49.5605 21.9238-50.9766 24.8047-50.9766L86.3281-50.9766C89.209-50.9766 90.7715-49.5605 90.7715-46.4844L90.7715-13.4277C90.7715-10.3516 89.209-8.93555 86.3281-8.93555Z"/>
  </g>
  <g id="Semibold-S" transform="matrix(1 0 0 1 1987.9 696)">
   <path d="M23.0957 1.17188L87.6465 1.17188C96.3867 1.17188 100.977-3.36914 100.977-12.0117L100.977-48.1445C100.977-56.7871 96.3867-61.377 87.6465-61.377L83.3496-61.377L83.3496-65.7227C83.3496-69.4336 81.25-71.582 77.5879-71.582L67.6758-71.582C64.0625-71.582 61.9141-69.4336 61.9141-65.7227L61.9141-61.377L48.7793-61.377L48.7793-65.7227C48.7793-69.4336 46.6309-71.582 43.0176-71.582L33.1055-71.582C29.4434-71.582 27.3438-69.4336 27.3438-65.7227L27.3438-61.377L23.0957-61.377C14.4043-61.377 9.76562-56.7871 9.76562-48.1445L9.76562-12.0117C9.76562-3.36914 14.4043 1.17188 23.0957 1.17188ZM23.877-8.10547C20.752-8.10547 19.0918-9.7168 19.0918-12.9883L19.0918-47.168C19.0918-50.4883 20.752-52.0508 23.877-52.0508L86.8652-52.0508C89.9902-52.0508 91.6992-50.4883 91.6992-47.168L91.6992-12.9883C91.6992-9.7168 89.9902-8.10547 86.8652-8.10547Z"/>
  </g>
  <g id="Medium-S" transform="matrix(1 0 0 1 1691.31 696)">
   <path d="M22.7051 0.830078L87.7441 0.830078C96.3379 0.830078 100.732-3.51562 100.732-11.9629L100.732-48.3887C100.732-56.8359 96.3379-61.2305 87.7441-61.2305L83.2031-61.2305L83.2031-65.8203C83.2031-69.2383 81.2012-71.2402 77.832-71.2402L67.5293-71.2402C64.1602-71.2402 62.1582-69.2383 62.1582-65.8203L62.1582-61.2305L48.2422-61.2305L48.2422-65.8203C48.2422-69.2383 46.2891-71.2402 42.8711-71.2402L32.5684-71.2402C29.1992-71.2402 27.1973-69.2383 27.1973-65.8203L27.1973-61.2305L22.7051-61.2305C14.209-61.2305 9.76562-56.8359 9.76562-48.3887L9.76562-11.9629C9.76562-3.51562 14.209 0.830078 22.7051 0.830078ZM23.1934-7.4707C19.9219-7.4707 18.0664-9.22852 18.0664-12.6953L18.0664-47.7051C18.0664-51.1719 19.9219-52.8809 23.1934-52.8809L87.3047-52.8809C90.5762-52.8809 92.3828-51.1719 92.3828-47.7051L92.3828-12.6953C92.3828-9.22852 90.5762-7.4707 87.3047-7.4707Z"/>
  </g>
  <g id="Regular-S" transform="matrix(1 0 0 1 1394.79 696)">
   <path d="M22.2168 0.390625L87.8906 0.390625C96.2402 0.390625 100.342-3.71094 100.342-11.9141L100.342-48.7305C100.342-56.9336 96.2402-61.0352 87.8906-61.0352L82.959-61.0352L82.959-65.8691C82.959-68.9453 81.2012-70.8008 78.1738-70.8008L67.2852-70.8008C64.2578-70.8008 62.4512-68.9453 62.4512-65.8691L62.4512-61.0352L47.5586-61.0352L47.5586-65.8691C47.5586-68.9453 45.8008-70.8008 42.7246-70.8008L31.8848-70.8008C28.8086-70.8008 27.0508-68.9453 27.0508-65.8691L27.0508-61.0352L22.2168-61.0352C13.916-61.0352 9.76562-56.9336 9.76562-48.7305L9.76562-11.9141C9.76562-3.71094 13.916 0.390625 22.2168 0.390625ZM22.3145-6.68945C18.7988-6.68945 16.7969-8.54492 16.7969-12.2559L16.7969-48.3887C16.7969-52.0508 18.7988-53.9551 22.3145-53.9551L87.793-53.9551C91.3086-53.9551 93.3105-52.0508 93.3105-48.3887L93.3105-12.2559C93.3105-8.54492 91.3086-6.68945 87.793-6.68945Z"/>
  </g>
  <g id="Light-S" transform="matrix(1 0 0 1 1098.42 696)">
   <path d="M21.3867-0.292969L88.0371-0.292969C95.752-0.292969 99.6582-4.15039 99.6582-11.7676L99.6582-48.8281C99.6582-56.4453 95.752-60.3516 88.0371-60.3516L83.1055-60.3516L83.1055-65.625C83.1055-68.457 81.4941-70.1172 78.6621-70.1172L67.041-70.1172C64.209-70.1172 62.5977-68.457 62.5977-65.625L62.5977-60.3516L46.7773-60.3516L46.7773-65.625C46.7773-68.457 45.166-70.1172 42.2852-70.1172L30.7129-70.1172C27.832-70.1172 26.2695-68.457 26.2695-65.625L26.2695-60.3516L21.3867-60.3516C13.6719-60.3516 9.76562-56.4941 9.76562-48.8281L9.76562-11.7676C9.76562-4.15039 13.6719-0.292969 21.3867-0.292969ZM21.4844-5.71289C17.4316-5.71289 15.1855-7.86133 15.1855-12.0605L15.1855-48.5352C15.1855-52.7344 17.4316-54.9316 21.4844-54.9316L87.9395-54.9316C91.9434-54.9316 94.2383-52.7344 94.2383-48.5352L94.2383-12.0605C94.2383-7.86133 91.9434-5.71289 87.9395-5.71289Z"/>
  </g>
  <g id="Thin-S" transform="matrix(1 0 0 1 802.174 696)">
   <path d="M20.3125-1.12305L88.1836-1.12305C95.1172-1.12305 98.7305-4.78516 98.7305-11.6211L98.7305-48.9258C98.7305-55.8105 95.1172-59.4727 88.1836-59.4727L83.3008-59.4727L83.3008-65.332C83.3008-67.7734 81.9336-69.2383 79.2969-69.2383L66.748-69.2383C64.1602-69.2383 62.793-67.7734 62.793-65.332L62.793-59.4727L45.7031-59.4727L45.7031-65.332C45.7031-67.7734 44.3359-69.2383 41.748-69.2383L29.1504-69.2383C26.5625-69.2383 25.1953-67.7734 25.1953-65.332L25.1953-59.4727L20.3125-59.4727C13.3789-59.4727 9.76562-55.8594 9.76562-48.9258L9.76562-11.6211C9.76562-4.6875 13.3789-1.12305 20.3125-1.12305ZM20.4102-4.44336C15.625-4.44336 13.0859-6.93359 13.0859-11.8164L13.0859-48.7793C13.0859-53.6133 15.625-56.1523 20.4102-56.1523L88.0859-56.1523C92.7246-56.1523 95.4102-53.6133 95.4102-48.7793L95.4102-11.8164C95.4102-6.93359 92.7246-4.44336 88.0859-4.44336Z"/>
  </g>
  <g id="Ultralight-S" transform="matrix(1 0 0 1 505.707 696)">
   <path d="M19.7754-1.5625L88.2812-1.5625C94.8242-1.5625 98.2422-5.12695 98.2422-11.5234L98.2422-49.0234C98.2422-55.4688 94.8242-58.9844 88.2812-58.9844L83.3984-58.9844L83.3984-65.1855C83.3984-67.4316 82.1289-68.75 79.6387-68.75L66.6016-68.75C64.1113-68.75 62.8906-67.4316 62.8906-65.1855L62.8906-58.9844L45.166-58.9844L45.166-65.1855C45.166-67.4316 43.8965-68.75 41.4062-68.75L28.3691-68.75C25.8789-68.75 24.6582-67.4316 24.6582-65.1855L24.6582-58.9844L19.7754-58.9844C13.2324-58.9844 9.76562-55.5176 9.76562-49.0234L9.76562-11.5234C9.76562-5.0293 13.2324-1.5625 19.7754-1.5625ZM19.873-3.75977C14.6484-3.75977 11.9629-6.44531 11.9629-11.6699L11.9629-48.877C11.9629-54.1016 14.6484-56.7871 19.873-56.7871L88.1836-56.7871C93.1641-56.7871 96.0449-54.1016 96.0449-48.877L96.0449-11.6699C96.0449-6.44531 93.1641-3.75977 88.1836-3.75977Z"/>
  </g>
 </g>
</svg>
