<?xml version="1.0" encoding="UTF-8"?>
<!--Generator: Apple Native CoreSVG 175.5-->
<!DOCTYPE svg
PUBLIC "-//W3C//DTD SVG 1.1//EN"
       "http://www.w3.org/Graphics/SVG/1.1/DTD/svg11.dtd">
<svg version="1.1" xmlns="http://www.w3.org/2000/svg" xmlns:xlink="http://www.w3.org/1999/xlink" width="3300" height="2200">
 <!--glyph: "uni10096D.medium", point size: 100.0, font version: "18.0d12e2", template writer version: "101"-->
 <g id="Notes">
  <rect height="2200" id="artboard" style="fill:white;opacity:1" width="3300" x="0" y="0"/>
  <line style="fill:none;stroke:black;opacity:1;stroke-width:0.5;" x1="263" x2="3036" y1="292" y2="292"/>
  <text style="stroke:none;fill:black;font-family:sans-serif;font-size:13;font-weight:bold;" transform="matrix(1 0 0 1 263 322)">Weight/Scale Variations</text>
  <text style="stroke:none;fill:black;font-family:sans-serif;font-size:13;text-anchor:middle;" transform="matrix(1 0 0 1 559.711 322)">Ultralight</text>
  <text style="stroke:none;fill:black;font-family:sans-serif;font-size:13;text-anchor:middle;" transform="matrix(1 0 0 1 856.422 322)">Thin</text>
  <text style="stroke:none;fill:black;font-family:sans-serif;font-size:13;text-anchor:middle;" transform="matrix(1 0 0 1 1153.13 322)">Light</text>
  <text style="stroke:none;fill:black;font-family:sans-serif;font-size:13;text-anchor:middle;" transform="matrix(1 0 0 1 1449.84 322)">Regular</text>
  <text style="stroke:none;fill:black;font-family:sans-serif;font-size:13;text-anchor:middle;" transform="matrix(1 0 0 1 1746.56 322)">Medium</text>
  <text style="stroke:none;fill:black;font-family:sans-serif;font-size:13;text-anchor:middle;" transform="matrix(1 0 0 1 2043.27 322)">Semibold</text>
  <text style="stroke:none;fill:black;font-family:sans-serif;font-size:13;text-anchor:middle;" transform="matrix(1 0 0 1 2339.98 322)">Bold</text>
  <text style="stroke:none;fill:black;font-family:sans-serif;font-size:13;text-anchor:middle;" transform="matrix(1 0 0 1 2636.69 322)">Heavy</text>
  <text style="stroke:none;fill:black;font-family:sans-serif;font-size:13;text-anchor:middle;" transform="matrix(1 0 0 1 2933.4 322)">Black</text>
  <line style="fill:none;stroke:black;opacity:1;stroke-width:0.5;" x1="263" x2="3036" y1="1903" y2="1903"/>
  <g transform="matrix(1 0 0 1 263 1933)">
   <path d="M9.24805 0.830078C13.5547 0.830078 17.1387-2.74414 17.1387-7.05078C17.1387-11.3574 13.5449-14.9316 9.23828-14.9316C4.94141-14.9316 1.36719-11.3574 1.36719-7.05078C1.36719-2.74414 4.95117 0.830078 9.24805 0.830078ZM9.24805-0.654297C5.70312-0.654297 2.87109-3.49609 2.87109-7.05078C2.87109-10.6055 5.69336-13.4473 9.23828-13.4473C12.793-13.4473 15.6445-10.6055 15.6445-7.05078C15.6445-3.49609 12.8027-0.654297 9.24805-0.654297ZM5.6543-7.05078C5.6543-6.62109 5.95703-6.32812 6.40625-6.32812L8.50586-6.32812L8.50586-4.20898C8.50586-3.76953 8.79883-3.4668 9.22852-3.4668C9.67773-3.4668 9.9707-3.76953 9.9707-4.20898L9.9707-6.32812L12.0898-6.32812C12.5293-6.32812 12.832-6.62109 12.832-7.05078C12.832-7.49023 12.5293-7.79297 12.0898-7.79297L9.9707-7.79297L9.9707-9.90234C9.9707-10.3516 9.67773-10.6543 9.22852-10.6543C8.79883-10.6543 8.50586-10.3516 8.50586-9.90234L8.50586-7.79297L6.40625-7.79297C5.95703-7.79297 5.6543-7.49023 5.6543-7.05078Z"/>
  </g>
  <g transform="matrix(1 0 0 1 281.867 1933)">
   <path d="M11.709 2.91016C17.1582 2.91016 21.6699-1.61133 21.6699-7.05078C21.6699-12.5 17.1484-17.0117 11.6992-17.0117C6.25977-17.0117 1.74805-12.5 1.74805-7.05078C1.74805-1.61133 6.26953 2.91016 11.709 2.91016ZM11.709 1.25C7.09961 1.25 3.41797-2.44141 3.41797-7.05078C3.41797-11.6602 7.08984-15.3516 11.6992-15.3516C16.3086-15.3516 20.0098-11.6602 20.0098-7.05078C20.0098-2.44141 16.3184 1.25 11.709 1.25ZM7.17773-7.05078C7.17773-6.57227 7.50977-6.25 8.00781-6.25L10.8789-6.25L10.8789-3.36914C10.8789-2.88086 11.2109-2.53906 11.6895-2.53906C12.1777-2.53906 12.5195-2.87109 12.5195-3.36914L12.5195-6.25L15.4004-6.25C15.8887-6.25 16.2305-6.57227 16.2305-7.05078C16.2305-7.53906 15.8887-7.88086 15.4004-7.88086L12.5195-7.88086L12.5195-10.752C12.5195-11.25 12.1777-11.5918 11.6895-11.5918C11.2109-11.5918 10.8789-11.25 10.8789-10.752L10.8789-7.88086L8.00781-7.88086C7.50977-7.88086 7.17773-7.53906 7.17773-7.05078Z"/>
  </g>
  <g transform="matrix(1 0 0 1 305.646 1933)">
   <path d="M14.9707 5.66406C21.9336 5.66406 27.6953-0.0976562 27.6953-7.05078C27.6953-14.0137 21.9238-19.7754 14.9609-19.7754C8.00781-19.7754 2.25586-14.0137 2.25586-7.05078C2.25586-0.0976562 8.01758 5.66406 14.9707 5.66406ZM14.9707 3.84766C8.93555 3.84766 4.08203-1.01562 4.08203-7.05078C4.08203-13.0957 8.92578-17.9492 14.9609-17.9492C21.0059-17.9492 25.8691-13.0957 25.8691-7.05078C25.8691-1.01562 21.0156 3.84766 14.9707 3.84766ZM9.19922-7.05078C9.19922-6.5332 9.57031-6.17188 10.1172-6.17188L14.0625-6.17188L14.0625-2.2168C14.0625-1.67969 14.4336-1.29883 14.9512-1.29883C15.4883-1.29883 15.8594-1.66992 15.8594-2.2168L15.8594-6.17188L19.8145-6.17188C20.3516-6.17188 20.7324-6.5332 20.7324-7.05078C20.7324-7.59766 20.3613-7.96875 19.8145-7.96875L15.8594-7.96875L15.8594-11.9141C15.8594-12.4609 15.4883-12.8418 14.9512-12.8418C14.4336-12.8418 14.0625-12.4609 14.0625-11.9141L14.0625-7.96875L10.1172-7.96875C9.57031-7.96875 9.19922-7.59766 9.19922-7.05078Z"/>
  </g>
  <text style="stroke:none;fill:black;font-family:sans-serif;font-size:13;font-weight:bold;" transform="matrix(1 0 0 1 263 1953)">Design Variations</text>
  <text style="stroke:none;fill:black;font-family:sans-serif;font-size:13;" transform="matrix(1 0 0 1 263 1971)">Symbols are supported in up to nine weights and three scales.</text>
  <text style="stroke:none;fill:black;font-family:sans-serif;font-size:13;" transform="matrix(1 0 0 1 263 1989)">For optimal layout with text and other symbols, vertically align</text>
  <text style="stroke:none;fill:black;font-family:sans-serif;font-size:13;" transform="matrix(1 0 0 1 263 2007)">symbols with the adjacent text.</text>
  <line style="fill:none;stroke:#00AEEF;stroke-width:0.5;opacity:1.0;" x1="776" x2="776" y1="1919" y2="1933"/>
  <g transform="matrix(1 0 0 1 776 1933)">
   <path d="M3.31055 0.15625C3.82812 0.15625 4.08203-0.0390625 4.26758-0.585938L5.52734-4.0332L11.2891-4.0332L12.5488-0.585938C12.7344-0.0390625 12.9883 0.15625 13.4961 0.15625C14.0137 0.15625 14.3457-0.15625 14.3457-0.644531C14.3457-0.810547 14.3164-0.966797 14.2383-1.17188L9.6582-13.3691C9.43359-13.9648 9.0332-14.2676 8.4082-14.2676C7.80273-14.2676 7.39258-13.9746 7.17773-13.3789L2.59766-1.16211C2.51953-0.957031 2.49023-0.800781 2.49023-0.634766C2.49023-0.146484 2.80273 0.15625 3.31055 0.15625ZM6.00586-5.51758L8.37891-12.0898L8.42773-12.0898L10.8008-5.51758Z"/>
  </g>
  <line style="fill:none;stroke:#00AEEF;stroke-width:0.5;opacity:1.0;" x1="793.197" x2="793.197" y1="1919" y2="1933"/>
  <text style="stroke:none;fill:black;font-family:sans-serif;font-size:13;font-weight:bold;" transform="matrix(1 0 0 1 776 1953)">Margins</text>
  <text style="stroke:none;fill:black;font-family:sans-serif;font-size:13;" transform="matrix(1 0 0 1 776 1971)">Leading and trailing margins on the left and right side of each symbol</text>
  <text style="stroke:none;fill:black;font-family:sans-serif;font-size:13;" transform="matrix(1 0 0 1 776 1989)">can be adjusted by modifying the x-location of the margin guidelines.</text>
  <text style="stroke:none;fill:black;font-family:sans-serif;font-size:13;" transform="matrix(1 0 0 1 776 2007)">Modifications are automatically applied proportionally to all</text>
  <text style="stroke:none;fill:black;font-family:sans-serif;font-size:13;" transform="matrix(1 0 0 1 776 2025)">scales and weights.</text>
  <g transform="matrix(1 0 0 1 1289 1933)">
   <path d="M2.8418 1.86523L4.54102 3.57422C5.40039 4.44336 6.38672 4.38477 7.31445 3.35938L18.0078-8.42773L17.041-9.4043L6.42578 2.27539C6.07422 2.67578 5.74219 2.77344 5.27344 2.30469L4.10156 1.14258C3.63281 0.683594 3.74023 0.341797 4.14062-0.0195312L15.6152-10.8203L14.6387-11.7871L3.04688-0.898438C2.06055 0.0195312 1.98242 0.996094 2.8418 1.86523ZM9.25781-16.3281C8.83789-15.918 8.80859-15.3418 9.04297-14.9512C9.27734-14.5898 9.73633-14.3555 10.3809-14.5215C11.8457-14.8633 13.3691-14.9219 14.7949-13.9844L14.209-12.5293C13.8672-11.6992 14.043-11.1133 14.5801-10.5664L16.875-8.25195C17.3633-7.76367 17.7734-7.74414 18.3398-7.8418L19.4043-8.03711L20.0684-7.36328L20.0293-6.80664C19.9902-6.30859 20.1172-5.92773 20.6055-5.44922L21.3672-4.70703C21.8457-4.22852 22.4609-4.19922 22.9297-4.66797L25.8398-7.58789C26.3086-8.05664 26.2891-8.65234 25.8105-9.13086L25.0391-9.89258C24.5605-10.3711 24.1895-10.5273 23.7109-10.4883L23.1348-10.4395L22.4902-11.0742L22.7344-12.1973C22.8613-12.7637 22.7051-13.2031 22.1191-13.7891L19.9219-15.9766C16.582-19.2969 12.1484-19.2188 9.25781-16.3281ZM10.752-15.957C13.1836-17.7344 16.4746-17.4316 18.7012-15.2051L21.1328-12.793C21.3672-12.5586 21.4062-12.373 21.3379-12.0312L21.0156-10.5469L22.5195-9.0625L23.5059-9.12109C23.7598-9.13086 23.8379-9.11133 24.0332-8.91602L24.6094-8.33984L22.168-5.89844L21.5918-6.47461C21.3965-6.66992 21.3672-6.74805 21.377-7.01172L21.4453-7.98828L19.9512-9.47266L18.4277-9.21875C18.1055-9.15039 17.959-9.17969 17.7148-9.41406L15.7129-11.416C15.459-11.6504 15.4297-11.8164 15.5859-12.1875L16.4648-14.2773C14.9023-15.7324 12.8711-16.3574 10.8398-15.7617C10.6836-15.7227 10.625-15.8496 10.752-15.957Z"/>
  </g>
  <text style="stroke:none;fill:black;font-family:sans-serif;font-size:13;font-weight:bold;" transform="matrix(1 0 0 1 1289 1953)">Exporting</text>
  <text style="stroke:none;fill:black;font-family:sans-serif;font-size:13;" transform="matrix(1 0 0 1 1289 1971)">Symbols should be outlined when exporting to ensure the</text>
  <text style="stroke:none;fill:black;font-family:sans-serif;font-size:13;" transform="matrix(1 0 0 1 1289 1989)">design is preserved when submitting to Xcode.</text>
  <text id="template-version" style="stroke:none;fill:black;font-family:sans-serif;font-size:13;text-anchor:end;" transform="matrix(1 0 0 1 3036 1933)">Template v.3.0</text>
  <text style="stroke:none;fill:black;font-family:sans-serif;font-size:13;text-anchor:end;" transform="matrix(1 0 0 1 3036 1951)">Requires Xcode 13 or greater</text>
  <text id="descriptive-name" style="stroke:none;fill:black;font-family:sans-serif;font-size:13;text-anchor:end;" transform="matrix(1 0 0 1 3036 1969)">Generated from puzzlepiece.extension</text>
  <text style="stroke:none;fill:black;font-family:sans-serif;font-size:13;text-anchor:end;" transform="matrix(1 0 0 1 3036 1987)">Typeset at 100 points</text>
  <text style="stroke:none;fill:black;font-family:sans-serif;font-size:13;" transform="matrix(1 0 0 1 263 726)">Small</text>
  <text style="stroke:none;fill:black;font-family:sans-serif;font-size:13;" transform="matrix(1 0 0 1 263 1156)">Medium</text>
  <text style="stroke:none;fill:black;font-family:sans-serif;font-size:13;" transform="matrix(1 0 0 1 263 1586)">Large</text>
 </g>
 <g id="Guides">
  <g id="H-reference" style="fill:#27AAE1;stroke:none;" transform="matrix(1 0 0 1 339 696)">
   <path d="M0.993654 0L3.63775 0L29.3281-67.1323L30.0303-67.1323L30.0303-70.459L28.1226-70.459ZM11.6885-24.4799L46.9815-24.4799L46.2315-26.7285L12.4385-26.7285ZM55.1196 0L57.7637 0L30.6382-70.459L29.4326-70.459L29.4326-67.1323Z"/>
  </g>
  <line id="Baseline-S" style="fill:none;stroke:#27AAE1;opacity:1;stroke-width:0.5;" x1="263" x2="3036" y1="696" y2="696"/>
  <line id="Capline-S" style="fill:none;stroke:#27AAE1;opacity:1;stroke-width:0.5;" x1="263" x2="3036" y1="625.541" y2="625.541"/>
  <g id="H-reference" style="fill:#27AAE1;stroke:none;" transform="matrix(1 0 0 1 339 1126)">
   <path d="M0.993654 0L3.63775 0L29.3281-67.1323L30.0303-67.1323L30.0303-70.459L28.1226-70.459ZM11.6885-24.4799L46.9815-24.4799L46.2315-26.7285L12.4385-26.7285ZM55.1196 0L57.7637 0L30.6382-70.459L29.4326-70.459L29.4326-67.1323Z"/>
  </g>
  <line id="Baseline-M" style="fill:none;stroke:#27AAE1;opacity:1;stroke-width:0.5;" x1="263" x2="3036" y1="1126" y2="1126"/>
  <line id="Capline-M" style="fill:none;stroke:#27AAE1;opacity:1;stroke-width:0.5;" x1="263" x2="3036" y1="1055.54" y2="1055.54"/>
  <g id="H-reference" style="fill:#27AAE1;stroke:none;" transform="matrix(1 0 0 1 339 1556)">
   <path d="M0.993654 0L3.63775 0L29.3281-67.1323L30.0303-67.1323L30.0303-70.459L28.1226-70.459ZM11.6885-24.4799L46.9815-24.4799L46.2315-26.7285L12.4385-26.7285ZM55.1196 0L57.7637 0L30.6382-70.459L29.4326-70.459L29.4326-67.1323Z"/>
  </g>
  <line id="Baseline-L" style="fill:none;stroke:#27AAE1;opacity:1;stroke-width:0.5;" x1="263" x2="3036" y1="1556" y2="1556"/>
  <line id="Capline-L" style="fill:none;stroke:#27AAE1;opacity:1;stroke-width:0.5;" x1="263" x2="3036" y1="1485.54" y2="1485.54"/>
  <line id="left-margin-Ultralight-S" style="fill:none;stroke:#00AEEF;stroke-width:0.5;opacity:1.0;" x1="506.104" x2="506.104" y1="600.785" y2="720.121"/>
  <line id="right-margin-Ultralight-S" style="fill:none;stroke:#00AEEF;stroke-width:0.5;opacity:1.0;" x1="613.318" x2="613.318" y1="600.785" y2="720.121"/>
  <line id="left-margin-Regular-S" style="fill:none;stroke:#00AEEF;stroke-width:0.5;opacity:1.0;" x1="1394.38" x2="1394.38" y1="600.785" y2="720.121"/>
  <line id="right-margin-Regular-S" style="fill:none;stroke:#00AEEF;stroke-width:0.5;opacity:1.0;" x1="1505.31" x2="1505.31" y1="600.785" y2="720.121"/>
  <line id="left-margin-Black-S" style="fill:none;stroke:#00AEEF;stroke-width:0.5;opacity:1.0;" x1="2875.37" x2="2875.37" y1="600.785" y2="720.121"/>
  <line id="right-margin-Black-S" style="fill:none;stroke:#00AEEF;stroke-width:0.5;opacity:1.0;" x1="2991.43" x2="2991.43" y1="600.785" y2="720.121"/>
 </g>
 <g id="Symbols">
  <g id="Black-S" transform="matrix(1 0 0 1 2875.37 696)">
   <path d="M9.76562-9.17969C9.76562-0.878906 15.3809 4.6875 23.8281 4.6875L71.9727 4.6875C80.4199 4.6875 86.0352-0.878906 86.0352-9.17969L86.0352-18.5547C86.0352-19.2383 86.5234-19.4336 87.3047-19.0918C88.7207-18.457 90.5762-18.2129 92.7734-18.2129C101.074-18.2129 109.229-24.4629 109.229-35.3027C109.229-46.1426 101.074-52.3926 92.7734-52.3926C90.5762-52.3926 88.7207-52.1484 87.3047-51.5137C86.5234-51.1719 86.0352-51.3672 86.0352-52.0508L86.0352-61.4258C86.0352-69.7266 80.4199-75.293 71.9727-75.293L23.8281-75.293C15.3809-75.293 9.76562-69.7266 9.76562-61.4258L9.76562-44.8242C9.76562-40.1367 13.0371-36.6699 17.4316-36.6699C20.1172-36.6699 21.7285-37.5977 23.1934-38.5254C24.707-39.502 26.0254-40.4785 28.0762-40.4785C31.1523-40.4785 33.2031-38.4277 33.2031-35.3027C33.2031-32.1777 31.1523-30.127 28.0762-30.127C26.0254-30.127 24.707-31.1035 23.1934-32.0801C21.7285-33.0078 20.1172-33.9355 17.4316-33.9355C13.0371-33.9355 9.76562-30.4688 9.76562-25.7812ZM21.9727-9.57031L21.9727-18.5547C21.9727-19.2383 22.4609-19.4336 23.2422-19.0918C24.6582-18.457 26.5137-18.2129 28.7109-18.2129C37.0117-18.2129 45.166-24.4629 45.166-35.3027C45.166-46.1426 37.0117-52.3926 28.7109-52.3926C26.5137-52.3926 24.6582-52.1484 23.2422-51.5137C22.4609-51.1719 21.9727-51.3672 21.9727-52.0508L21.9727-61.0352C21.9727-62.2559 22.7539-63.0859 23.9258-63.0859L71.875-63.0859C73.0469-63.0859 73.8281-62.2559 73.8281-61.0352L73.8281-44.8242C73.8281-40.1367 77.0996-36.6699 81.4941-36.6699C84.1797-36.6699 85.791-37.5977 87.2559-38.5254C88.7695-39.502 90.0879-40.4785 92.1387-40.4785C95.2148-40.4785 97.2656-38.4277 97.2656-35.3027C97.2656-32.1777 95.2148-30.127 92.1387-30.127C90.0879-30.127 88.7695-31.1035 87.2559-32.0801C85.791-33.0078 84.1797-33.9355 81.4941-33.9355C77.0996-33.9355 73.8281-30.4688 73.8281-25.7812L73.8281-9.57031C73.8281-8.34961 73.0469-7.51953 71.875-7.51953L23.9258-7.51953C22.7539-7.51953 21.9727-8.34961 21.9727-9.57031Z"/>
  </g>
  <g id="Regular-S" transform="matrix(1 0 0 1 1394.38 696)">
   <path d="M9.76562-10.0586C9.76562-1.95312 13.916 2.09961 22.168 2.09961L68.5059 2.09961C76.709 2.09961 80.8594-1.95312 80.8594-10.0586L80.8594-22.9492C80.8594-23.4375 81.2012-23.6816 81.7871-23.2422C84.2773-21.5332 87.207-20.5078 89.9414-20.5078C97.2168-20.5078 104.102-26.5137 104.102-35.2539C104.102-44.043 97.2168-50 89.9414-50C87.207-50 84.2773-49.0234 81.7871-47.2656C81.2012-46.875 80.8594-47.0703 80.8594-47.6074L80.8594-60.5469C80.8594-68.6523 76.709-72.7051 68.5059-72.7051L22.168-72.7051C13.916-72.7051 9.76562-68.6523 9.76562-60.5469L9.76562-43.7988C9.76562-40.3809 12.0605-38.2324 14.8926-38.2324C16.4551-38.2324 18.1152-38.916 19.6777-40.3809C21.4355-41.9922 23.5352-43.0176 25.5371-43.0176C29.5898-43.0176 33.2031-39.9414 33.2031-35.2539C33.2031-30.5664 29.5898-27.4902 25.5371-27.4902C23.5352-27.4902 21.4355-28.5156 19.6777-30.127C18.1152-31.5918 16.4551-32.2754 14.8926-32.2754C12.0605-32.2754 9.76562-30.127 9.76562-26.709ZM16.7969-10.4492L16.7969-22.168C16.7969-24.1211 17.7246-23.2422 18.4082-22.8516C20.7031-21.3867 23.3398-20.5078 25.8789-20.5078C33.1543-20.5078 39.9902-26.5137 39.9902-35.2539C39.9902-43.9941 33.1543-50 25.8789-50C23.3398-50 20.7031-49.1211 18.4082-47.6562C17.7246-47.2656 16.7969-46.3867 16.7969-48.3398L16.7969-60.1562C16.7969-63.7695 18.7988-65.6738 22.2656-65.6738L68.4082-65.6738C71.8262-65.6738 73.8281-63.7695 73.8281-60.1562L73.8281-43.8477C73.8281-40.4297 76.123-38.2324 78.9551-38.2324C80.5176-38.2324 82.1777-38.916 83.7402-40.3809C85.498-42.041 87.5977-43.0176 89.5996-43.0176C93.6523-43.0176 97.2656-39.9414 97.2656-35.2539C97.2656-30.6152 93.6523-27.4902 89.5996-27.4902C87.5977-27.4902 85.498-28.5156 83.7402-30.127C82.1777-31.5918 80.5176-32.2754 78.9551-32.2754C76.123-32.2754 73.8281-30.127 73.8281-26.709L73.8281-10.4492C73.8281-6.83594 71.8262-4.93164 68.4082-4.93164L22.2656-4.93164C18.7988-4.93164 16.7969-6.83594 16.7969-10.4492Z"/>
  </g>
  <g id="Ultralight-S" transform="matrix(1 0 0 1 506.104 696)">
   <path d="M9.76562-8.74171C9.76562-3.6787 13.1895-0.30711 18.399-0.30711L68.3242-0.30711C73.5303-0.30711 76.9541-3.6787 76.9541-8.74171L76.9541-25.1743C76.9541-26.2075 77.7954-26.9057 78.8809-26.103C81.0532-24.5302 83.4834-22.2788 88.5337-22.2788C95.582-22.2788 100.378-27.1948 100.378-34.6636C100.378-42.0903 95.582-47.0484 88.5337-47.0484C83.4834-47.0484 81.0532-44.7549 78.8809-43.1787C77.7954-42.4248 76.9541-43.0743 76.9541-44.1109L76.9541-61.8638C76.9541-66.9268 73.5303-70.2984 68.3242-70.2984L18.399-70.2984C13.1895-70.2984 9.76562-66.9268 9.76562-61.8638L9.76562-43.9805C9.76562-41.9248 10.9707-40.9116 12.8491-40.9116C13.7305-40.9116 14.5279-41.2773 15.5909-42.1518C17.939-44.081 20.084-45.4243 23.5391-45.4243C29.3174-45.4243 33.2031-41.3945 33.2031-35.2539C33.2031-29.1133 29.3174-25.0835 23.5391-25.0835C20.084-25.0835 17.939-26.4268 15.5909-28.356C14.5279-29.2305 13.7305-29.5962 12.8491-29.5962C10.9707-29.5962 9.76562-28.583 9.76562-26.5273ZM11.9834-8.81447L11.9834-26.2094C11.9834-27.3452 12.8658-27.4653 13.9126-26.7114C16.1167-25.1557 18.5264-22.8691 23.563-22.8691C30.6113-22.8691 35.4038-27.8306 35.4038-35.2539C35.4038-42.6773 30.6113-47.6387 23.563-47.6387C18.5264-47.6387 16.1167-45.3521 13.9126-43.7964C12.8658-43.0425 11.9834-43.1626 11.9834-44.2984L11.9834-61.791C11.9834-65.5859 14.5757-68.0805 18.4966-68.0805L68.2266-68.0805C72.144-68.0805 74.7363-65.5859 74.7363-61.791L74.7363-43.8477C74.7363-41.792 75.9868-40.3213 77.8198-40.3213C78.7012-40.3213 79.544-40.687 80.5615-41.5615C82.9551-43.4941 85.1001-44.834 88.5098-44.834C94.2881-44.834 98.1738-40.7588 98.1738-34.6636C98.1738-28.5264 94.2881-24.4932 88.5098-24.4932C85.1001-24.4932 82.9551-25.8364 80.5615-27.7656C79.544-28.6402 78.7012-28.9605 77.8198-28.9605C75.9868-28.9605 74.7363-27.5386 74.7363-25.4375L74.7363-8.81447C74.7363-5.01955 72.144-2.52492 68.2266-2.52492L18.4966-2.52492C14.5757-2.52492 11.9834-5.01955 11.9834-8.81447Z"/>
  </g>
 </g>
</svg>
