<?xml version="1.0" encoding="UTF-8"?>
<svg width="3300px" height="2200px" viewBox="0 0 3300 2200" version="1.1" xmlns="http://www.w3.org/2000/svg" xmlns:xlink="http://www.w3.org/1999/xlink">
    <!-- Generator: Sketch 60.1 (88133) - https://sketch.com -->
    <title>Untitled</title>
    <desc>Created with Sketch.</desc>
    <g id="Page-1" stroke="none" stroke-width="1" fill="none" fill-rule="evenodd">
        <g id="doc.plaintext.on">
            <g id="Notes">
                <rect id="artboard" fill="#FFFFFF" fill-rule="nonzero" x="0" y="0" width="3300" height="2200"></rect>
                <line x1="263" y1="292" x2="3036" y2="292" id="Path" stroke="#000000" stroke-width="0.5"></line>
                <text id="Weight/Scale-Variations" fill="#000000" font-family="Helvetica-Bold, Helvetica" font-size="13" font-weight="bold">
                    <tspan x="263" y="322">Weight/Scale Variations</tspan>
                </text>
                <text id="Ultralight" fill="#000000" font-family="Helvetica" font-size="13" font-weight="normal">
                    <tspan x="533.711" y="322">Ultralight</tspan>
                </text>
                <text id="Thin" fill="#000000" font-family="Helvetica" font-size="13" font-weight="normal">
                    <tspan x="843.422" y="322">Thin</tspan>
                </text>
                <text id="Light" fill="#000000" font-family="Helvetica" font-size="13" font-weight="normal">
                    <tspan x="1138.63" y="322">Light</tspan>
                </text>
                <text id="Regular" fill="#000000" font-family="Helvetica" font-size="13" font-weight="normal">
                    <tspan x="1426.84" y="322">Regular</tspan>
                </text>
                <text id="Medium" fill="#000000" font-family="Helvetica" font-size="13" font-weight="normal">
                    <tspan x="1723.06" y="322">Medium</tspan>
                </text>
                <text id="Semibold" fill="#000000" font-family="Helvetica" font-size="13" font-weight="normal">
                    <tspan x="2015.77" y="322">Semibold</tspan>
                </text>
                <text id="Bold" fill="#000000" font-family="Helvetica" font-size="13" font-weight="normal">
                    <tspan x="2326.48" y="322">Bold</tspan>
                </text>
                <text id="Heavy" fill="#000000" font-family="Helvetica" font-size="13" font-weight="normal">
                    <tspan x="2618.19" y="322">Heavy</tspan>
                </text>
                <text id="Black" fill="#000000" font-family="Helvetica" font-size="13" font-weight="normal">
                    <tspan x="2917.4" y="322">Black</tspan>
                </text>
                <line x1="263" y1="1903" x2="3036" y2="1903" id="Path" stroke="#000000" stroke-width="0.5"></line>
                <g id="Group" transform="translate(264.000000, 1918.000000)" fill="#000000" fill-rule="nonzero">
                    <path d="M8.24805,15.830078 C12.5547,15.830078 16.1387,12.25586 16.1387,7.94922 C16.1387,3.6426 12.5449,0.0684 8.23828,0.0684 C3.94141,0.0684 0.36719,3.6426 0.36719,7.94922 C0.36719,12.25586 3.95117,15.830078 8.24805,15.830078 Z M8.24805,14.345703 C4.70312,14.345703 1.87109,11.50391 1.87109,7.94922 C1.87109,4.3945 4.69336,1.5527 8.23828,1.5527 C11.793,1.5527 14.6348,4.3945 14.6445252,7.94922 C14.6543,11.50391 11.8027,14.345703 8.24805,14.345703 Z M8.22852,11.57227 C8.69727,11.57227 8.9707,11.25977 8.9707,10.74219 L8.9707,8.68164 L11.1973,8.68164 C11.6953,8.68164 12.0371,8.42773 12.0371,7.95898 C12.0371,7.48047 11.7148,7.2168 11.1973,7.2168 L8.9707,7.2168 L8.9707,4.9902 C8.9707,4.4727 8.69727,4.1504 8.22852,4.1504 C7.75977,4.1504 7.50586,4.4922 7.50586,4.9902 L7.50586,7.2168 L5.29883,7.2168 C4.78125,7.2168 4.44922,7.48047 4.44922,7.95898 C4.44922,8.42773 4.80078,8.68164 5.29883,8.68164 L7.50586,8.68164 L7.50586,10.74219 C7.50586,11.24023 7.75977,11.57227 8.22852,11.57227 Z" id="Shape"></path>
                </g>
                <g id="Group" transform="translate(282.506000, 1915.000000)" fill="#000000" fill-rule="nonzero">
                    <path d="M10.709,20.91016 C16.1582,20.91016 20.6699,16.39844 20.6699,10.94922 C20.6699,5.5098 16.1484,0.9883 10.6992,0.9883 C5.25977,0.9883 0.74805,5.5098 0.74805,10.94922 C0.74805,16.39844 5.26953,20.91016 10.709,20.91016 Z M10.709,19.25 C6.09961,19.25 2.41797,15.55859 2.41797,10.94922 C2.41797,6.3496 6.08984,2.6484 10.6992,2.6484 C15.3086,2.6484 19,6.3496 19.009819,10.94922 C19.0195,15.55859 15.3184,19.25 10.709,19.25 Z M10.6895,15.58789 C11.207,15.58789 11.5195,15.22656 11.5195,14.66016 L11.5195,11.76953 L14.5762,11.76953 C15.123,11.76953 15.5039,11.48633 15.5039,10.96875 C15.5039,10.44141 15.1426,10.13867 14.5762,10.13867 L11.5195,10.13867 L11.5195,7.0723 C11.5195,6.4961 11.207,6.1445 10.6895,6.1445 C10.1719,6.1445 9.8789,6.5156 9.8789,7.0723 L9.8789,10.13867 L6.83203,10.13867 C6.26562,10.13867 5.89453,10.44141 5.89453,10.96875 C5.89453,11.48633 6.28516,11.76953 6.83203,11.76953 L9.8789,11.76953 L9.8789,14.66016 C9.8789,15.20703 10.1719,15.58789 10.6895,15.58789 Z" id="Shape"></path>
                </g>
                <g id="Group" transform="translate(306.924000, 1913.000000)" fill="#000000" fill-rule="nonzero">
                    <path d="M12.9707,25.67383 C19.9336,25.67383 25.6953,19.921875 25.6953,12.95898 C25.6953,5.9961 19.9238,0.2441 12.9609,0.2441 C6.00781,0.2441 0.25586,5.9961 0.25586,12.95898 C0.25586,19.921875 6.01758,25.67383 12.9707,25.67383 Z M12.9707,23.85742 C6.93555,23.85742 2.08203,18.99414 2.08203,12.95898 C2.08203,6.9238 6.92578,2.0605 12.9609,2.0605 C19.0059,2.0605 23.8594,6.9238 23.8691148,12.95898 C23.8789,18.99414 19.0156,23.85742 12.9707,23.85742 Z M12.9512,18.93555 C13.5176,18.93555 13.8691,18.54492 13.8691,17.93945 L13.8691,13.86719 L18.1074,13.86719 C18.6934,13.86719 19.1133,13.53516 19.1133,12.97852 C19.1133,12.40234 18.7227,12.06055 18.1074,12.06055 L13.8691,12.06055 L13.8691,7.8125 C13.8691,7.1973 13.5176,6.8066 12.9512,6.8066 C12.3848,6.8066 12.0625,7.2168 12.0625,7.8125 L12.0625,12.06055 L7.83398,12.06055 C7.21875,12.06055 6.80859,12.40234 6.80859,12.97852 C6.80859,13.53516 7.23828,13.86719 7.83398,13.86719 L12.0625,13.86719 L12.0625,17.93945 C12.0625,18.52539 12.3848,18.93555 12.9512,18.93555 Z" id="Shape"></path>
                </g>
                <text id="Design-Variations" fill="#000000" font-family="Helvetica-Bold, Helvetica" font-size="13" font-weight="bold">
                    <tspan x="263" y="1953">Design Variations</tspan>
                </text>
                <text id="Symbols-are-supported-in-up-to-nine-weights-and-three-scales." fill="#000000" font-family="Helvetica" font-size="13" font-weight="normal">
                    <tspan x="263" y="1971">Symbols are supported in up to nine weights and three scales.</tspan>
                </text>
                <text id="For-optimal-layout-with-text-and-other-symbols,-vertically-align" fill="#000000" font-family="Helvetica" font-size="13" font-weight="normal">
                    <tspan x="263" y="1989">For optimal layout with text and other symbols, vertically align</tspan>
                </text>
                <text id="symbols-with-the-adjacent-text." fill="#000000" font-family="Helvetica" font-size="13" font-weight="normal">
                    <tspan x="263" y="2007">symbols with the adjacent text.</tspan>
                </text>
                <rect id="Rectangle" fill="#00AEEF" fill-rule="nonzero" opacity="0.4" x="776" y="1919" width="3" height="14"></rect>
                <g id="Group" transform="translate(779.000000, 1918.000000)" fill="#000000" fill-rule="nonzero">
                    <path d="M10.5273,15 L12.373,15 L7.17773,0.9082 L5.43945,0.9082 L0.244141,15 L2.08984,15 L3.50586,10.9668 L9.11133,10.9668 L10.5273,15 Z M6.2793,3.0469 L6.33789,3.0469 L8.59375,9.47266 L4.02344,9.47266 L6.2793,3.0469 Z" id="Shape"></path>
                </g>
                <rect id="Rectangle" fill="#00AEEF" fill-rule="nonzero" opacity="0.4" x="791.617" y="1919" width="3" height="14"></rect>
                <text id="Margins" fill="#000000" font-family="Helvetica-Bold, Helvetica" font-size="13" font-weight="bold">
                    <tspan x="776" y="1953">Margins</tspan>
                </text>
                <text id="Leading-and-trailing-margins-on-the-left-and-right-side-of-each-symbol" fill="#000000" font-family="Helvetica" font-size="13" font-weight="normal">
                    <tspan x="776" y="1971">Leading and trailing margins on the left and right side of each symbol</tspan>
                </text>
                <text id="can-be-adjusted-by-modifying-the-width-of-the-blue-rectangles." fill="#000000" font-family="Helvetica" font-size="13" font-weight="normal">
                    <tspan x="776" y="1989">can be adjusted by modifying the width of the blue rectangles.</tspan>
                </text>
                <text id="Modifications-are-automatically-applied-proportionally-to-all" fill="#000000" font-family="Helvetica" font-size="13" font-weight="normal">
                    <tspan x="776" y="2007">Modifications are automatically applied proportionally to all</tspan>
                </text>
                <text id="scales-and-weights." fill="#000000" font-family="Helvetica" font-size="13" font-weight="normal">
                    <tspan x="776" y="2025">scales and weights.</tspan>
                </text>
                <g id="Group" transform="translate(1291.000000, 1915.000000)" fill="#000000" fill-rule="nonzero">
                    <path d="M0.83203,21.11523 L2.375,22.6582 C3.22461,23.48828 4.19141,23.41992 5.06055,22.46289 L15.2754,11.33984 C15.7051,11.63281 16.0957,11.62305 16.5645,11.52539 L17.6094,11.31055 L18.3027,12.00391 L18.2539,12.52148 C18.1855,13.04883 18.3516,13.46875 18.8496,13.9668 L19.6602,14.77734 C20.168,15.28516 20.8223,15.31445 21.3008,14.83594 L24.5527,11.58398 C25.0312,11.10547 25.0117,10.45117 24.5039,9.94336 L23.6836,9.12305 C23.1855,8.625 22.7754,8.44922 22.2383,8.52734 L21.7109,8.58594 L21.0566,7.9219 L21.3398,6.7793 C21.4863,6.2129 21.3398,5.7441 20.7148,5.1387 L18.3027,2.7461 C14.7578,-0.7793 10.2266,-0.6719 7.11133,2.4629 C6.69141,2.8926 6.64258,3.4785 6.91602,3.9082 C7.15039,4.2793 7.62891,4.5039 8.2734,4.3379 C9.7871,3.957 11.3008,4.0742 12.7852,5.0801 L12.1602,6.6621 C11.9258,7.248 11.9453,7.7266 12.1797,8.16602 L1.01758,18.439453 C0.08008,19.30859 -0.02734,20.25586 0.83203,21.11523 Z M8.6738,2.8535 C11.3398,0.8613 14.6504,1.1738 17.0527,3.5859 L19.6797,6.1934 C19.9141,6.4277 19.9434,6.6133 19.8848,6.9062 L19.5039,8.46875 L21.0762,10.04102 L22.043,9.95312 C22.3262,9.92383 22.4141,9.94336 22.6387,10.16797 L23.2637,10.79297 L20.5098,13.53711 L19.8848,12.92188 C19.6602,12.69727 19.6406,12.59961 19.6699,12.31641 L19.7578,11.35938 L18.1953,9.79688 L16.5742,10.10938 C16.291,10.16797 16.1445,10.16797 15.9102,9.92383 L13.7324,7.7461 C13.5078,7.5117 13.4785,7.375 13.6055,7.0527 L14.5527,4.7773 C12.9512,3.2441 10.8418,2.3945 8.8008,3.0488 C8.7129,3.0781 8.6445,3.0586 8.6152,3.0195 C8.5859,2.9707 8.5859,2.9219 8.6738,2.8535 Z M2.10156,20.41211 C1.61328,19.91406 1.78906,19.61133 2.12109,19.30859 L13.0781,9.19141 L14.3086,10.42188 L4.15234,21.34961 C3.84961,21.68164 3.46875,21.7793 3.06836,21.37891 L2.10156,20.41211 Z" id="Shape"></path>
                </g>
                <text id="Exporting" fill="#000000" font-family="Helvetica-Bold, Helvetica" font-size="13" font-weight="bold">
                    <tspan x="1289" y="1953">Exporting</tspan>
                </text>
                <text id="Symbols-should-be-outlined-when-exporting-to-ensure-the" fill="#000000" font-family="Helvetica" font-size="13" font-weight="normal">
                    <tspan x="1289" y="1971">Symbols should be outlined when exporting to ensure the</tspan>
                </text>
                <text id="design-is-preserved-when-submitting-to-Xcode." fill="#000000" font-family="Helvetica" font-size="13" font-weight="normal">
                    <tspan x="1289" y="1989">design is preserved when submitting to Xcode.</tspan>
                </text>
                <text id="template-version" fill="#000000" font-family="Helvetica" font-size="13" font-weight="normal">
                    <tspan x="2952" y="1933">Template v.1.0</tspan>
                </text>
                <text id="Generated-from-doc.plaintext" fill="#000000" font-family="Helvetica" font-size="13" font-weight="normal">
                    <tspan x="2868" y="1951">Generated from doc.plaintext</tspan>
                </text>
                <text id="Typeset-at-100-points" fill="#000000" font-family="Helvetica" font-size="13" font-weight="normal">
                    <tspan x="2912" y="1969">Typeset at 100 points</tspan>
                </text>
                <text id="Small" fill="#000000" font-family="Helvetica" font-size="13" font-weight="normal">
                    <tspan x="263" y="726">Small</tspan>
                </text>
                <text id="Medium" fill="#000000" font-family="Helvetica" font-size="13" font-weight="normal">
                    <tspan x="263" y="1156">Medium</tspan>
                </text>
                <text id="Large" fill="#000000" font-family="Helvetica" font-size="13" font-weight="normal">
                    <tspan x="263" y="1586">Large</tspan>
                </text>
            </g>
            <g id="Guides" transform="translate(263.000000, 625.000000)">
                <g id="H-reference" transform="translate(76.000000, 0.000000)" fill="#27AAE1" fill-rule="nonzero">
                    <path d="M54.9316,71 L57.666,71 L30.5664,0.541 L28.0762,0.541 L0.976562,71 L3.66211,71 L12.9395,46.5371 L45.7031,46.5371 L54.9316,71 Z M29.1992,3.9102 L29.4434,3.9102 L44.8242,44.291 L13.8184,44.291 L29.1992,3.9102 Z" id="Shape"></path>
                </g>
                <line x1="0" y1="71" x2="2773" y2="71" id="Baseline-S" stroke="#27AAE1" stroke-width="0.577"></line>
                <line x1="0" y1="0.541" x2="2773" y2="0.541" id="Capline-S" stroke="#27AAE1" stroke-width="0.577"></line>
                <g id="H-reference" transform="translate(76.000000, 430.000000)" fill="#27AAE1" fill-rule="nonzero">
                    <path d="M54.9316,71 L57.666,71 L30.5664,0.541 L28.0762,0.541 L0.976562,71 L3.66211,71 L12.9395,46.5371 L45.7031,46.5371 L54.9316,71 Z M29.1992,3.9102 L29.4434,3.9102 L44.8242,44.291 L13.8184,44.291 L29.1992,3.9102 Z" id="Shape"></path>
                </g>
                <line x1="0" y1="501" x2="2773" y2="501" id="Baseline-M" stroke="#27AAE1" stroke-width="0.577"></line>
                <line x1="0" y1="430.54" x2="2773" y2="430.54" id="Capline-M" stroke="#27AAE1" stroke-width="0.577"></line>
                <g id="H-reference" transform="translate(76.000000, 860.000000)" fill="#27AAE1" fill-rule="nonzero">
                    <path d="M54.9316,71 L57.666,71 L30.5664,0.541 L28.0762,0.541 L0.976562,71 L3.66211,71 L12.9395,46.5371 L45.7031,46.5371 L54.9316,71 Z M29.1992,3.9102 L29.4434,3.9102 L44.8242,44.291 L13.8184,44.291 L29.1992,3.9102 Z" id="Shape"></path>
                </g>
                <line x1="0" y1="931" x2="2773" y2="931" id="Baseline-L" stroke="#27AAE1" stroke-width="0.577"></line>
                <line x1="0" y1="860.54" x2="2773" y2="860.54" id="Capline-L" stroke="#27AAE1" stroke-width="0.577"></line>
                <rect id="left-margin" fill="#00AEEF" fill-rule="nonzero" opacity="0.4" x="1133.33" y="405.79" width="12.4512" height="119.336"></rect>
                <rect id="right-margin" fill="#00AEEF" fill-rule="nonzero" opacity="0.4" x="1227.91" y="405.79" width="12.4512" height="119.336"></rect>
            </g>
            <g id="Symbols" transform="translate(509.000000, 617.000000)" fill="#000000" fill-rule="nonzero">
                <g id="Black-L" transform="translate(2366.650000, 833.000000)">
                    <path d="M91.617,0.385 C106.803,0.385 115.445,9.0273 115.445,24.2617 L115.445,24.2617 L115.445,117.377 C115.445,132.6113 106.803,141.2539 91.617,141.2539 L91.617,141.2539 L23.8926,141.2539 C8.707,141.2539 0.0645,132.6113 0.0645,117.377 L0.0645,117.377 L0.0645,24.2617 C0.0645,9.0273 8.707,0.385 23.8926,0.385 L23.8926,0.385 Z M58.6582,76.166 L37.7109,76.166 C35.0254,76.166 33.1211,78.2168 33.1211,80.7559 C33.1211,83.2461 35.0254,85.1992 37.7109,85.1992 L58.6582,85.1992 C61.2461,85.1992 63.1992,83.2461 63.1992,80.7559 C63.1992,78.2168 61.2461,76.166 58.6582,76.166 Z M77.8965,56.1953 L37.7109,56.1953 C35.0254,56.1953 33.1211,58.0996 33.1211,60.5898 C33.1211,63.1777 35.0254,65.1797 37.7109,65.1797 L77.8965,65.1797 C80.4844,65.1797 82.3887,63.1777 82.3887,60.5898 C82.3887,58.0996 80.4844,56.1953 77.8965,56.1953 Z M77.8965,36.1758 L37.7109,36.1758 C35.0254,36.1758 33.1211,38.0801 33.1211,40.6191 C33.1211,43.1582 35.0254,45.1602 37.7109,45.1602 L77.8965,45.1602 C80.4844,45.1602 82.3887,43.1582 82.3887,40.6191 C82.3887,38.0801 80.4844,36.1758 77.8965,36.1758 Z" id="Shape"></path>
                </g>
                <g id="Heavy-L" transform="translate(2071.180000, 834.000000)">
                    <path d="M90.348,0.117 C104.898,0.117 112.955,8.2715 112.955,22.8711 L112.955,22.8711 L112.955,116.7676 C112.955,131.416 104.898,139.5215 90.348,139.5215 L90.348,139.5215 L22.7207,139.5215 C8.1211,139.5215 0.0645,131.416 0.0645,116.7676 L0.0645,116.7676 L0.0645,22.8711 C0.0645,8.2715 8.1699,0.117 22.7207,0.117 L22.7207,0.117 Z M56.998,75.0684 L35.416,75.0684 C32.9258,75.0684 31.1191,76.9238 31.1191,79.3652 C31.1191,81.709 32.9258,83.5156 35.416,83.5156 L56.998,83.5156 C59.3906,83.5156 61.2461,81.709 61.2461,79.3652 C61.2461,76.9238 59.3906,75.0684 56.998,75.0684 Z M77.6523,54.5605 L35.416,54.5605 C32.9258,54.5605 31.1191,56.3672 31.1191,58.7109 C31.1191,61.1523 32.9258,63.0566 35.416,63.0566 L77.6523,63.0566 C80.0938,63.0566 81.9004,61.1523 81.9004,58.7109 C81.9004,56.3672 80.0938,54.5605 77.6523,54.5605 Z M77.6523,34.0527 L35.416,34.0527 C32.9258,34.0527 31.1191,35.9082 31.1191,38.252 C31.1191,40.6445 32.9258,42.5488 35.416,42.5488 L77.6523,42.5488 C80.0938,42.5488 81.9004,40.6445 81.9004,38.252 C81.9004,35.9082 80.0938,34.0527 77.6523,34.0527 Z" id="Shape"></path>
                </g>
                <g id="Bold-L" transform="translate(1775.860000, 834.000000)">
                    <path d="M88.883,0.947 C102.701,0.947 110.172,8.5156 110.172,22.4316 L110.172,22.4316 L110.172,117.2559 C110.172,131.1719 102.701,138.6914 88.883,138.6914 L88.883,138.6914 L21.4023,138.6914 C7.5352,138.6914 0.0645,131.1719 0.0645,117.2559 L0.0645,117.2559 L0.0645,22.4316 C0.0645,8.5156 7.584,0.947 21.4023,0.947 L21.4023,0.947 Z M55.0938,74.9219 L32.877,74.9219 C30.582,74.9219 28.873,76.6797 28.873,78.9258 C28.873,81.0742 30.582,82.7832 32.877,82.7832 L55.0938,82.7832 C57.3398,82.7832 59.0488,81.0742 59.0488,78.9258 C59.0488,76.6797 57.3398,74.9219 55.0938,74.9219 Z M77.4082,53.877 L32.877,53.877 C30.582,53.877 28.873,55.5859 28.873,57.7344 C28.873,59.9805 30.582,61.7383 32.877,61.7383 L77.4082,61.7383 C79.7031,61.7383 81.3633,59.9805 81.3633,57.7344 C81.3633,55.5859 79.7031,53.877 77.4082,53.877 Z M77.4082,32.832 L32.877,32.832 C30.582,32.832 28.873,34.541 28.873,36.7383 C28.873,38.9844 30.582,40.7422 32.877,40.7422 L77.4082,40.7422 C79.7031,40.7422 81.3633,38.9844 81.3633,36.7383 C81.3633,34.541 79.7031,32.832 77.4082,32.832 Z" id="Shape"></path>
                </g>
                <g id="Semibold-L" transform="translate(1480.100000, 835.000000)">
                    <path d="M87.857,0.533 C101.188,0.533 108.268,7.6621 108.268,21.0898 L108.268,21.0898 L108.268,116.5488 C108.268,130.0254 101.188,137.1055 87.857,137.1055 L87.857,137.1055 L20.4746,137.1055 C7.0957,137.1055 0.0645,130.0254 0.0645,116.5488 L0.0645,116.5488 L0.0645,21.0898 C0.0645,7.6621 7.1445,0.533 20.4746,0.533 L20.4746,0.533 Z M53.7754,73.7754 L31.1191,73.7754 C28.9219,73.7754 27.3105,75.4844 27.3105,77.584 C27.3105,79.6836 28.9219,81.2949 31.1191,81.2949 L53.7754,81.2949 C55.9238,81.2949 57.5352,79.6836 57.5352,77.584 C57.5352,75.4844 55.9238,73.7754 53.7754,73.7754 Z M77.2617,52.3887 L31.1191,52.3887 C28.9219,52.3887 27.3105,54 27.3105,56.0508 C27.3105,58.1992 28.9219,59.8594 31.1191,59.8594 L77.2617,59.8594 C79.4102,59.8594 81.0215,58.1992 81.0215,56.0508 C81.0215,54 79.4102,52.3887 77.2617,52.3887 Z M77.2617,31.002 L31.1191,31.002 C28.9219,31.002 27.3105,32.6133 27.3105,34.6641 C27.3105,36.8125 28.9219,38.4727 31.1191,38.4727 L77.2617,38.4727 C79.4102,38.4727 81.0215,36.8125 81.0215,34.6641 C81.0215,32.6133 79.4102,31.002 77.2617,31.002 Z" id="Shape"></path>
                </g>
                <g id="Medium-L" transform="translate(1184.120000, 835.000000)">
                    <path d="M87.076,0.973 C100.064,0.973 106.803,7.8086 106.803,20.8945 L106.803,20.8945 L106.803,116.793 C106.803,129.9277 100.064,136.666 87.076,136.666 L87.076,136.666 L19.791,136.666 C6.8027,136.666 0.0645,129.9277 0.0645,116.793 L0.0645,116.793 L0.0645,20.8945 C0.0645,7.8086 6.8516,0.973 19.791,0.973 L19.791,0.973 Z M52.7988,73.7266 L29.8008,73.7266 C27.7012,73.7266 26.1387,75.3379 26.1387,77.3398 C26.1387,79.3418 27.7012,80.9043 29.8008,80.9043 L52.7988,80.9043 C54.8496,80.9043 56.4121,79.3418 56.4121,77.3398 C56.4121,75.3379 54.8496,73.7266 52.7988,73.7266 Z M77.1152,52.0469 L29.8008,52.0469 C27.7012,52.0469 26.1387,53.5605 26.1387,55.5625 C26.1387,57.6133 27.7012,59.2246 29.8008,59.2246 L77.1152,59.2246 C79.166,59.2246 80.7285,57.6133 80.7285,55.5625 C80.7285,53.5605 79.166,52.0469 77.1152,52.0469 Z M77.1152,30.3184 L29.8008,30.3184 C27.7012,30.3184 26.1387,31.8809 26.1387,33.8828 C26.1387,35.9336 27.7012,37.4961 29.8008,37.4961 L77.1152,37.4961 C79.166,37.4961 80.7285,35.9336 80.7285,33.8828 C80.7285,31.8809 79.166,30.3184 77.1152,30.3184 Z" id="Shape"></path>
                </g>
                <g id="Regular-L" transform="translate(888.360000, 836.000000)">
                    <path d="M86.1,0.559 C98.6,0.559 104.898,6.9551 104.898,19.5527 L104.898,19.5527 L104.898,116.1348 C104.898,128.7324 98.6,135.1289 86.1,135.1289 L86.1,135.1289 L18.8633,135.1289 C6.3633,135.1289 0.0645,128.7324 0.0645,116.1348 L0.0645,116.1348 L0.0645,19.5527 C0.0645,6.9551 6.4609,0.559 18.8633,0.559 L18.8633,0.559 Z M51.4805,72.6289 L28.0918,72.6289 C26.0898,72.6289 24.625,74.1426 24.625,76.0469 C24.625,77.9023 26.0898,79.3672 28.0918,79.3672 L51.4805,79.3672 C53.4336,79.3672 54.8984,77.9023 54.8984,76.0469 C54.8984,74.1426 53.4336,72.6289 51.4805,72.6289 Z M76.9199,50.5586 L28.0918,50.5586 C26.0898,50.5586 24.625,52.0234 24.625,53.8789 C24.625,55.832 26.0898,57.3457 28.0918,57.3457 L76.9199,57.3457 C78.873,57.3457 80.3379,55.832 80.3379,53.8789 C80.3379,52.0234 78.873,50.5586 76.9199,50.5586 Z M76.9199,28.4883 L28.0918,28.4883 C26.0898,28.4883 24.625,29.9531 24.625,31.8086 C24.625,33.7617 26.0898,35.2754 28.0918,35.2754 L76.9199,35.2754 C78.873,35.2754 80.3379,33.7617 80.3379,31.8086 C80.3379,29.9531 78.873,28.4883 76.9199,28.4883 Z" id="Shape"></path>
                </g>
                <g id="Light-L" transform="translate(592.430000, 836.000000)">
                    <path d="M85.514,0.949 C97.281,0.949 103.336,7.0527 103.336,18.918 L103.336,18.918 L103.336,116.8184 C103.336,128.6836 97.281,134.7871 85.514,134.7871 L85.514,134.7871 L17.9355,134.7871 C6.1191,134.7871 0.0645,128.6836 0.0645,116.8184 L0.0645,116.8184 L0.0645,18.918 C0.0645,7.0527 6.2168,0.949 17.9355,0.949 L17.9355,0.949 Z M51.041,72.1895 L26.5781,72.1895 C24.9668,72.1895 23.7461,73.4102 23.7461,74.9238 C23.7461,76.4375 24.9668,77.6094 26.5781,77.6094 L51.041,77.6094 C52.6035,77.6094 53.7754,76.4375 53.7754,74.9238 C53.7754,73.4102 52.6035,72.1895 51.041,72.1895 Z M76.8711,50.0215 L26.5781,50.0215 C24.9668,50.0215 23.7461,51.1934 23.7461,52.707 C23.7461,54.2207 24.9668,55.4414 26.5781,55.4414 L76.8711,55.4414 C78.4824,55.4414 79.6543,54.2207 79.6543,52.707 C79.6543,51.1934 78.4824,50.0215 76.8711,50.0215 Z M76.8711,27.8535 L26.5781,27.8535 C24.9668,27.8535 23.7461,29.0254 23.7461,30.5391 C23.7461,32.0527 24.9668,33.2734 26.5781,33.2734 L76.8711,33.2734 C78.4824,33.2734 79.6543,32.0527 79.6543,30.5391 C79.6543,29.0254 78.4824,27.8535 76.8711,27.8535 Z" id="Shape"></path>
                </g>
                <g id="Thin-L" transform="translate(296.747000, 837.000000)">
                    <path d="M84.732,0.438 C95.572,0.438 101.285,6.1504 101.285,17.0391 L101.285,17.0391 L101.285,116.7461 C101.285,127.6348 95.572,133.3477 84.732,133.3477 L84.732,133.3477 L16.666,133.3477 C5.7773,133.3477 0.0645,127.6348 0.0645,116.7461 L0.0645,116.7461 L0.0645,17.0391 C0.0645,6.1504 5.9238,0.438 16.666,0.438 L16.666,0.438 Z M50.4062,70.6035 L24.5762,70.6035 C23.4531,70.6035 22.623,71.4336 22.623,72.4102 C22.623,73.4355 23.4531,74.2656 24.5762,74.2656 L50.4062,74.2656 C51.4805,74.2656 52.3105,73.4355 52.3105,72.4102 C52.3105,71.4336 51.4805,70.6035 50.4062,70.6035 Z M76.8223,48.2891 L24.5762,48.2891 C23.4531,48.2891 22.623,49.0703 22.623,50.0957 C22.623,51.1211 23.4531,51.9512 24.5762,51.9512 L76.8223,51.9512 C77.8965,51.9512 78.7266,51.1211 78.7266,50.0957 C78.7266,49.0703 77.8965,48.2891 76.8223,48.2891 Z M76.8223,25.9258 L24.5762,25.9258 C23.4531,25.9258 22.623,26.7559 22.623,27.7812 C22.623,28.8066 23.4531,29.6367 24.5762,29.6367 L76.8223,29.6367 C77.8965,29.6367 78.7266,28.8066 78.7266,27.7812 C78.7266,26.7559 77.8965,25.9258 76.8223,25.9258 Z" id="Shape"></path>
                </g>
                <g id="Ultralight-L" transform="translate(0.549000, 837.000000)">
                    <path d="M84.293,0.682 C94.693,0.682 100.26,6.1992 100.26,16.5508 L100.26,16.5508 L100.26,117.2344 C100.26,127.5859 94.693,133.1523 84.293,133.1523 L84.293,133.1523 L15.9824,133.1523 C5.6309,133.1523 0.0645,127.5859 0.0645,117.2344 L0.0645,117.2344 L0.0645,16.5508 C0.0645,6.1992 5.7773,0.682 15.9824,0.682 L15.9824,0.682 Z M50.1133,70.2617 L23.5508,70.2617 C22.6719,70.2617 22.0859,70.8965 22.0859,71.6777 C22.0859,72.4102 22.6719,73.0449 23.5508,73.0449 L50.1133,73.0449 C50.9434,73.0449 51.5781,72.4102 51.5781,71.6777 C51.5781,70.8965 50.9434,70.2617 50.1133,70.2617 Z M76.7734,47.8984 L23.5508,47.8984 C22.6719,47.8984 22.0859,48.5332 22.0859,49.2656 C22.0859,50.0469 22.6719,50.6816 23.5508,50.6816 L76.7734,50.6816 C77.6035,50.6816 78.2383,50.0469 78.2383,49.2656 C78.2383,48.5332 77.6035,47.8984 76.7734,47.8984 Z M76.7734,25.4863 L23.5508,25.4863 C22.6719,25.4863 22.0859,26.1211 22.0859,26.9023 C22.0859,27.6348 22.6719,28.2695 23.5508,28.2695 L76.7734,28.2695 C77.6035,28.2695 78.2383,27.6348 78.2383,26.9023 C78.2383,26.1211 77.6035,25.4863 76.7734,25.4863 Z" id="Shape"></path>
                </g>
                <g id="Black-M" transform="translate(2377.980000, 418.000000)">
                    <path d="M72.8633,0.375 C85.1191,0.375 92.395,7.6504 92.395,19.9062 L92.395,19.9062 L92.395,91.683594 C92.395,103.9395 85.1191,111.2148 72.8633,111.2148 L72.8633,111.2148 L19.9824,111.2148 C7.7266,111.2148 0.4512,103.9395 0.4512,91.683594 L0.4512,91.683594 L0.4512,19.9062 C0.4512,7.6504 7.7266,0.375 19.9824,0.375 L19.9824,0.375 Z M47.9121,59.8965 L31.8477,59.8965 C29.7969,59.8965 28.2832,61.459 28.2832,63.4609 C28.2832,65.4141 29.7969,66.8789 31.8477,66.8789 L47.9121,66.8789 C49.9141,66.8789 51.4277,65.4141 51.4277,63.4609 C51.4277,61.459 49.9141,59.8965 47.9121,59.8965 Z M61.0469,45.0039 L31.8477,45.0039 C29.7969,45.0039 28.2832,46.5176 28.2832,48.4219 C28.2832,50.4238 29.7969,51.9863 31.8477,51.9863 L61.0469,51.9863 C63.0488,51.9863 64.5625,50.4238 64.5625,48.4219 C64.5625,46.5176 63.0488,45.0039 61.0469,45.0039 Z M61.0469,30.1113 L31.8477,30.1113 C29.7969,30.1113 28.2832,31.5762 28.2832,33.5293 C28.2832,35.5312 29.7969,37.0938 31.8477,37.0938 L61.0469,37.0938 C63.0488,37.0938 64.5625,35.5312 64.5625,33.5293 C64.5625,31.5762 63.0488,30.1113 61.0469,30.1113 Z" id="Shape"></path>
                </g>
                <g id="Heavy-M" transform="translate(2082.410000, 419.000000)">
                    <path d="M71.5938,0.1074 C83.3125,0.1074 90.1,6.8945 90.1,18.6621 L90.1,18.6621 L90.1,90.976562 C90.1,102.7441 83.3125,109.4824 71.5938,109.4824 L71.5938,109.4824 L18.957,109.4824 C7.1895,109.4824 0.4512,102.7441 0.4512,90.976562 L0.4512,90.976562 L0.4512,18.6621 C0.4512,6.8945 7.1895,0.1074 18.957,0.1074 L18.957,0.1074 Z M46.2031,58.8965 L29.7969,58.8965 C27.7949,58.8965 26.3301,60.4102 26.3301,62.3145 C26.3301,64.1699 27.7949,65.6348 29.7969,65.6348 L46.2031,65.6348 C48.1074,65.6348 49.5723,64.1699 49.5723,62.3145 C49.5723,60.4102 48.1074,58.8965 46.2031,58.8965 Z M60.8027,43.4668 L29.7969,43.4668 C27.7949,43.4668 26.3301,44.9316 26.3301,46.7871 C26.3301,48.6914 27.7949,50.2051 29.7969,50.2051 L60.8027,50.2051 C62.7559,50.2051 64.1719,48.6914 64.1719,46.7871 C64.1719,44.9316 62.7559,43.4668 60.8027,43.4668 Z M60.8027,28.0371 L29.7969,28.0371 C27.7949,28.0371 26.3301,29.502 26.3301,31.3574 C26.3301,33.3105 27.7949,34.8242 29.7969,34.8242 L60.8027,34.8242 C62.7559,34.8242 64.1719,33.3105 64.1719,31.3574 C64.1719,29.502 62.7559,28.0371 60.8027,28.0371 Z" id="Shape"></path>
                </g>
                <g id="Bold-M" transform="translate(1787.000000, 419.000000)">
                    <path d="M70.1777,0.9375 C81.3105,0.9375 87.5117,7.1387 87.5117,18.3691 L87.5117,18.3691 L87.5117,91.26953 C87.5117,102.5 81.3105,108.7012 70.1777,108.7012 L70.1777,108.7012 L17.7852,108.7012 C6.6035,108.7012 0.4512,102.5 0.4512,91.26953 L0.4512,91.26953 L0.4512,18.3691 C0.4512,7.1387 6.6035,0.9375 17.7852,0.9375 L17.7852,0.9375 Z M44.25,58.8477 L27.4531,58.8477 C25.5488,58.8477 24.1328,60.3125 24.1328,62.168 C24.1328,63.9258 25.5488,65.3418 27.4531,65.3418 L44.25,65.3418 C46.1055,65.3418 47.4727,63.9258 47.4727,62.168 C47.4727,60.3125 46.1055,58.8477 44.25,58.8477 Z M60.5586,42.8809 L27.4531,42.8809 C25.5488,42.8809 24.1328,44.248 24.1328,46.0547 C24.1328,47.9102 25.5488,49.375 27.4531,49.375 L60.5586,49.375 C62.4141,49.375 63.8301,47.9102 63.8301,46.0547 C63.8301,44.248 62.4141,42.8809 60.5586,42.8809 Z M60.5586,26.9141 L27.4531,26.9141 C25.5488,26.9141 24.1328,28.2812 24.1328,30.0879 C24.1328,31.9434 25.5488,33.4082 27.4531,33.4082 L60.5586,33.4082 C62.4141,33.4082 63.8301,31.9434 63.8301,30.0879 C63.8301,28.2812 62.4141,26.9141 60.5586,26.9141 Z" id="Shape"></path>
                </g>
                <g id="Semibold-M" transform="translate(1491.190000, 420.000000)">
                    <path d="M69.1523,0.4746 C79.9434,0.4746 85.7051,6.334 85.7051,17.1738 L85.7051,17.1738 L85.7051,90.46484 C85.7051,101.3535 79.9434,107.1152 69.1523,107.1152 L69.1523,107.1152 L17.0039,107.1152 C6.2129,107.1152 0.4512,101.3535 0.4512,90.46484 L0.4512,90.46484 L0.4512,17.1738 C0.4512,6.334 6.2129,0.4746 17.0039,0.4746 L17.0039,0.4746 Z M42.8828,57.7988 L25.8418,57.7988 C23.9863,57.7988 22.6191,59.2148 22.6191,61.0215 C22.6191,62.7793 23.9863,64.1465 25.8418,64.1465 L42.8828,64.1465 C44.6895,64.1465 46.0566,62.7793 46.0566,61.0215 C46.0566,59.2148 44.6895,57.7988 42.8828,57.7988 Z M60.3633,41.4414 L25.8418,41.4414 C23.9863,41.4414 22.6191,42.8086 22.6191,44.5664 C22.6191,46.373 23.9863,47.7891 25.8418,47.7891 L60.3633,47.7891 C62.1699,47.7891 63.5371,46.373 63.5371,44.5664 C63.5371,42.8086 62.1699,41.4414 60.3633,41.4414 Z M60.3633,25.084 L25.8418,25.084 C23.9863,25.084 22.6191,26.4512 22.6191,28.209 C22.6191,30.0156 23.9863,31.4316 25.8418,31.4316 L60.3633,31.4316 C62.1699,31.4316 63.5371,30.0156 63.5371,28.209 C63.5371,26.4512 62.1699,25.084 60.3633,25.084 Z" id="Shape"></path>
                </g>
                <g id="Medium-M" transform="translate(1195.160000, 420.000000)">
                    <path d="M68.4199,0.9141 C78.918,0.9141 84.3379,6.4316 84.3379,16.9785 L84.3379,16.9785 L84.3379,90.61133 C84.3379,101.207 78.918,106.7246 68.4199,106.7246 L68.4199,106.7246 L16.3691,106.7246 C5.9199,106.7246 0.4512,101.207 0.4512,90.61133 L0.4512,90.61133 L0.4512,16.9785 C0.4512,6.4316 5.9199,0.9141 16.3691,0.9141 L16.3691,0.9141 Z M41.9062,57.7988 L24.6211,57.7988 C22.8145,57.7988 21.4473,59.166 21.4473,60.9238 C21.4473,62.6328 22.8145,64 24.6211,64 L41.9062,64 C43.6641,64 44.9824,62.6328 44.9824,60.9238 C44.9824,59.166 43.6641,57.7988 41.9062,57.7988 Z M60.2168,41.1484 L24.6211,41.1484 C22.8145,41.1484 21.4473,42.4668 21.4473,44.1758 C21.4473,45.9336 22.8145,47.3496 24.6211,47.3496 L60.2168,47.3496 C62.0234,47.3496 63.3418,45.9336 63.3418,44.1758 C63.3418,42.4668 62.0234,41.1484 60.2168,41.1484 Z M60.2168,24.498 L24.6211,24.498 C22.8145,24.498 21.4473,25.8164 21.4473,27.5254 C21.4473,29.2832 22.8145,30.6992 24.6211,30.6992 L60.2168,30.6992 C62.0234,30.6992 63.3418,29.2832 63.3418,27.5254 C63.3418,25.8164 62.0234,24.498 60.2168,24.498 Z" id="Shape"></path>
                </g>
                <g id="Regular-M" transform="translate(899.330000, 421.000000)">
                    <path d="M67.4434,0.4512 C77.5508,0.4512 82.5801,5.627 82.5801,15.7832 L82.5801,15.7832 L82.5801,89.85547 C82.5801,100.0605 77.5508,105.1387 67.4434,105.1387 L67.4434,105.1387 L15.5879,105.1387 C5.4805,105.1387 0.4512,100.0605 0.4512,89.85547 L0.4512,89.85547 L0.4512,15.7832 C0.4512,5.627 5.5293,0.4512 15.5879,0.4512 L15.5879,0.4512 Z M40.5391,56.7988 L23.0098,56.7988 C21.252,56.7988 19.9824,58.1172 19.9824,59.8262 C19.9824,61.4863 21.252,62.8047 23.0098,62.8047 L40.5391,62.8047 C42.2969,62.8047 43.5664,61.4863 43.5664,59.8262 C43.5664,58.1172 42.2969,56.7988 40.5391,56.7988 Z M60.0703,39.7578 L23.0098,39.7578 C21.252,39.7578 19.9824,41.0273 19.9824,42.6875 C19.9824,44.3965 21.252,45.7637 23.0098,45.7637 L60.0703,45.7637 C61.7793,45.7637 63.0488,44.3965 63.0488,42.6875 C63.0488,41.0273 61.7793,39.7578 60.0703,39.7578 Z M60.0703,22.7168 L23.0098,22.7168 C21.252,22.7168 19.9824,23.9863 19.9824,25.6465 C19.9824,27.3555 21.252,28.7227 23.0098,28.7227 L60.0703,28.7227 C61.7793,28.7227 63.0488,27.3555 63.0488,25.6465 C63.0488,23.9863 61.7793,22.7168 60.0703,22.7168 Z" id="Shape"></path>
                </g>
                <g id="Light-M" transform="translate(603.330000, 421.000000)">
                    <path d="M66.9062,0.793 C76.3789,0.793 81.1641,5.6758 81.1641,15.1973 L81.1641,15.1973 L81.1641,90.49023 C81.1641,100.0117 76.3789,104.8457 66.9062,104.8457 L66.9062,104.8457 L14.709,104.8457 C5.2852,104.8457 0.4512,100.0117 0.4512,90.49023 L0.4512,90.49023 L0.4512,15.1973 C0.4512,5.6758 5.334,0.793 14.709,0.793 L14.709,0.793 Z M40.1484,56.3594 L21.6426,56.3594 C20.2266,56.3594 19.2012,57.4336 19.2012,58.8008 C19.2012,60.168 20.2266,61.1934 21.6426,61.1934 L40.1484,61.1934 C41.5156,61.1934 42.5898,60.168 42.5898,58.8008 C42.5898,57.4336 41.5156,56.3594 40.1484,56.3594 Z M60.0215,39.2695 L21.6426,39.2695 C20.2266,39.2695 19.2012,40.2949 19.2012,41.6133 C19.2012,42.9805 20.2266,44.0547 21.6426,44.0547 L60.0215,44.0547 C61.3887,44.0547 62.4629,42.9805 62.4629,41.6133 C62.4629,40.2949 61.3887,39.2695 60.0215,39.2695 Z M60.0215,22.1309 L21.6426,22.1309 C20.2266,22.1309 19.2012,23.1562 19.2012,24.4746 C19.2012,25.8418 20.2266,26.916 21.6426,26.916 L60.0215,26.916 C61.3887,26.916 62.4629,25.8418 62.4629,24.4746 C62.4629,23.1562 61.3887,22.1309 60.0215,22.1309 Z" id="Shape"></path>
                </g>
                <g id="Thin-M" transform="translate(307.518000, 422.000000)">
                    <path d="M66.2227,0.2324 C74.8164,0.2324 79.3574,4.7734 79.3574,13.416 L79.3574,13.416 L79.3574,90.32031 C79.3574,98.9629 74.8164,103.4551 66.2227,103.4551 L66.2227,103.4551 L13.5859,103.4551 C4.9434,103.4551 0.4512,98.9629 0.4512,90.32031 L0.4512,90.32031 L0.4512,13.416 C0.4512,4.7734 5.041,0.2324 13.5859,0.2324 L13.5859,0.2324 Z M39.6113,54.8711 L19.8848,54.8711 C18.9082,54.8711 18.1758,55.6035 18.1758,56.4824 C18.1758,57.3613 18.9082,58.0938 19.8848,58.0938 L39.6113,58.0938 C40.5391,58.0938 41.2715,57.3613 41.2715,56.4824 C41.2715,55.6035 40.5391,54.8711 39.6113,54.8711 Z M59.9238,37.5859 L19.8848,37.5859 C18.9082,37.5859 18.1758,38.3184 18.1758,39.1973 C18.1758,40.0762 18.9082,40.8086 19.8848,40.8086 L59.9238,40.8086 C60.9004,40.8086 61.6328,40.0762 61.6328,39.1973 C61.6328,38.3184 60.9004,37.5859 59.9238,37.5859 Z M59.9238,20.3496 L19.8848,20.3496 C18.9082,20.3496 18.1758,21.0332 18.1758,21.9121 C18.1758,22.8398 18.9082,23.5723 19.8848,23.5723 L59.9238,23.5723 C60.9004,23.5723 61.6328,22.8398 61.6328,21.9121 C61.6328,21.0332 60.9004,20.3496 59.9238,20.3496 Z" id="Shape"></path>
                </g>
                <g id="Ultralight-M" transform="translate(11.295000, 422.000000)">
                    <path d="M65.8809,0.4766 C74.0352,0.4766 78.3809,4.8223 78.3809,13.0254 L78.3809,13.0254 L78.3809,90.71094 C78.3809,98.9141 74.0352,103.2598 65.8809,103.2598 L65.8809,103.2598 L13,103.2598 C4.7969,103.2598 0.4512,98.9141 0.4512,90.71094 L0.4512,90.71094 L0.4512,13.0254 C0.4512,4.8223 4.9434,0.4766 13,0.4766 L13,0.4766 Z M39.3184,54.5781 L18.957,54.5781 C18.2246,54.5781 17.6875,55.1152 17.6875,55.7988 C17.6875,56.4824 18.2246,57.0195 18.957,57.0195 L39.3184,57.0195 C40.0508,57.0195 40.5879,56.4824 40.5879,55.7988 C40.5879,55.1152 40.0508,54.5781 39.3184,54.5781 Z M59.9238,37.2441 L18.957,37.2441 C18.2246,37.2441 17.6875,37.7812 17.6875,38.4648 C17.6875,39.1484 18.2246,39.6855 18.957,39.6855 L59.9238,39.6855 C60.6562,39.6855 61.1934,39.1484 61.1934,38.4648 C61.1934,37.7812 60.6562,37.2441 59.9238,37.2441 Z M59.9238,19.9102 L18.957,19.9102 C18.2246,19.9102 17.6875,20.4473 17.6875,21.1309 C17.6875,21.8145 18.2246,22.3516 18.957,22.3516 L59.9238,22.3516 C60.6562,22.3516 61.1934,21.8145 61.1934,21.1309 C61.1934,20.4473 60.6562,19.9102 59.9238,19.9102 Z" id="Shape"></path>
                </g>
                <g id="Black-S" transform="translate(2387.700000, 0.000000)">
                    <path d="M57.4062,0.4355 C66.9766,0.4355 72.6406,6.0996 72.6406,15.6699 L72.6406,15.6699 L72.6406,71.91992 C72.6406,81.49023 66.9766,87.1543 57.4062,87.1543 L57.4062,87.1543 L16,87.1543 C6.4297,87.1543 0.76562,81.49023 0.76562,71.91992 L0.76562,71.91992 L0.76562,15.6699 C0.76562,6.0996 6.4297,0.4355 16,0.4355 L16,0.4355 Z M37.8262,47.0176 L25.2285,47.0176 C23.6172,47.0176 22.4453,48.2383 22.4453,49.8008 C22.4453,51.3145 23.6172,52.4863 25.2285,52.4863 L37.8262,52.4863 C39.3887,52.4863 40.5605,51.3145 40.5605,49.8008 C40.5605,48.2383 39.3887,47.0176 37.8262,47.0176 Z M48.2266,35.2988 L25.2285,35.2988 C23.6172,35.2988 22.4453,36.4707 22.4453,37.9844 C22.4453,39.5469 23.6172,40.7676 25.2285,40.7676 L48.2266,40.7676 C49.7891,40.7676 50.9609,39.5469 50.9609,37.9844 C50.9609,36.4707 49.7891,35.2988 48.2266,35.2988 Z M48.2266,23.5801 L25.2285,23.5801 C23.6172,23.5801 22.4453,24.752 22.4453,26.2656 C22.4453,27.8281 23.6172,29.0488 25.2285,29.0488 L48.2266,29.0488 C49.7891,29.0488 50.9609,27.8281 50.9609,26.2656 C50.9609,24.752 49.7891,23.5801 48.2266,23.5801 Z" id="Shape"></path>
                </g>
                <g id="Heavy-S" transform="translate(2091.790000, 0.000000)">
                    <path d="M56.4785,0.9727 C65.7559,0.9727 71.0293,6.2461 71.0293,15.5234 L71.0293,15.5234 L71.0293,72.06641 C71.0293,81.34375 65.7559,86.61719 56.4785,86.61719 L56.4785,86.61719 L15.3164,86.61719 C6.0391,86.61719 0.76562,81.34375 0.76562,72.06641 L0.76562,72.06641 L0.76562,15.5234 C0.76562,6.2461 6.0391,0.9727 15.3164,0.9727 L15.3164,0.9727 Z M36.5566,47.0176 L23.7637,47.0176 C22.2012,47.0176 21.0293,48.2383 21.0293,49.8008 C21.0293,51.3145 22.2012,52.4863 23.7637,52.4863 L36.5566,52.4863 C38.0703,52.4863 39.2422,51.3145 39.2422,49.8008 C39.2422,48.2383 38.0703,47.0176 36.5566,47.0176 Z M48.0312,34.957 L23.7637,34.957 C22.2012,34.957 21.0293,36.1289 21.0293,37.5938 C21.0293,39.1562 22.2012,40.377 23.7637,40.377 L48.0312,40.377 C49.5938,40.377 50.7656,39.1562 50.7656,37.5938 C50.7656,36.1289 49.5938,34.957 48.0312,34.957 Z M48.0312,22.8477 L23.7637,22.8477 C22.2012,22.8477 21.0293,24.0195 21.0293,25.5332 C21.0293,27.0469 22.2012,28.2676 23.7637,28.2676 L48.0312,28.2676 C49.5938,28.2676 50.7656,27.0469 50.7656,25.5332 C50.7656,24.0195 49.5938,22.8477 48.0312,22.8477 Z" id="Shape"></path>
                </g>
                <g id="Bold-S" transform="translate(1795.980000, 1.000000)">
                    <path d="M55.4531,0.5586 C64.3398,0.5586 69.2227,5.4414 69.2227,14.377 L69.2227,14.377 L69.2227,71.21289 C69.2227,80.14844 64.3398,85.08008 55.4531,85.08008 L55.4531,85.08008 L14.5352,85.08008 C5.6484,85.08008 0.76562,80.14844 0.76562,71.21289 L0.76562,71.21289 L0.76562,14.377 C0.76562,5.4414 5.6484,0.5586 14.5352,0.5586 L14.5352,0.5586 Z M35.0918,46.0664 L22.1523,46.0664 C20.5898,46.0664 19.418,47.2383 19.418,48.8008 C19.418,50.2656 20.5898,51.4375 22.1523,51.4375 L35.0918,51.4375 C36.6543,51.4375 37.7773,50.2656 37.7773,48.8008 C37.7773,47.2383 36.6543,46.0664 35.0918,46.0664 Z M47.8359,33.5664 L22.1523,33.5664 C20.5898,33.5664 19.418,34.6895 19.418,36.2031 C19.418,37.7168 20.5898,38.9375 22.1523,38.9375 L47.8359,38.9375 C49.3984,38.9375 50.5703,37.7168 50.5703,36.2031 C50.5703,34.6895 49.3984,33.5664 47.8359,33.5664 Z M47.8359,21.0664 L22.1523,21.0664 C20.5898,21.0664 19.418,22.1895 19.418,23.7031 C19.418,25.2168 20.5898,26.4375 22.1523,26.4375 L47.8359,26.4375 C49.3984,26.4375 50.5703,25.2168 50.5703,23.7031 C50.5703,22.1895 49.3984,21.0664 47.8359,21.0664 Z" id="Shape"></path>
                </g>
                <g id="Semibold-S" transform="translate(1499.910000, 1.000000)">
                    <path d="M54.7695,0.9492 C63.4121,0.9492 67.9531,5.5879 67.9531,14.2793 L67.9531,14.2793 L67.9531,71.31055 C67.9531,80.05078 63.4121,84.64062 54.7695,84.64062 L54.7695,84.64062 L13.998,84.64062 C5.3555,84.64062 0.76562,80.05078 0.76562,71.31055 L0.76562,71.31055 L0.76562,14.2793 C0.76562,5.5879 5.3555,0.9492 13.998,0.9492 L13.998,0.9492 Z M34.1152,46.0664 L21.0781,46.0664 C19.4668,46.0664 18.3438,47.2871 18.3438,48.8008 C18.3438,50.2656 19.4668,51.4375 21.0781,51.4375 L34.1152,51.4375 C35.6289,51.4375 36.8008,50.2656 36.8008,48.8008 C36.8008,47.2871 35.6289,46.0664 34.1152,46.0664 Z M47.7383,33.2734 L21.0781,33.2734 C19.4668,33.2734 18.3438,34.4453 18.3438,35.9102 C18.3438,37.4238 19.4668,38.6445 21.0781,38.6445 L47.7383,38.6445 C49.252,38.6445 50.375,37.4238 50.375,35.9102 C50.375,34.4453 49.252,33.2734 47.7383,33.2734 Z M47.7383,20.4805 L21.0781,20.4805 C19.4668,20.4805 18.3438,21.6523 18.3438,23.1172 C18.3438,24.6309 19.4668,25.8516 21.0781,25.8516 L47.7383,25.8516 C49.252,25.8516 50.375,24.6309 50.375,23.1172 C50.375,21.6523 49.252,20.4805 47.7383,20.4805 Z" id="Shape"></path>
                </g>
                <g id="Medium-S" transform="translate(1203.660000, 2.000000)">
                    <path d="M54.2324,0.2422 C62.6797,0.2422 67.0254,4.6855 67.0254,13.1816 L67.0254,13.1816 L67.0254,70.4082 C67.0254,78.95312 62.6797,83.34766 54.2324,83.34766 L54.2324,83.34766 L13.5586,83.34766 C5.1113,83.34766 0.76562,78.95312 0.76562,70.4082 L0.76562,70.4082 L0.76562,13.1816 C0.76562,4.6855 5.1113,0.2422 13.5586,0.2422 L13.5586,0.2422 Z M33.3828,45.0664 L20.1992,45.0664 C18.6367,45.0664 17.5137,46.2871 17.5137,47.8008 C17.5137,49.2656 18.6367,50.3887 20.1992,50.3887 L33.3828,50.3887 C34.8965,50.3887 36.0195,49.2656 36.0195,47.8008 C36.0195,46.2871 34.8965,45.0664 33.3828,45.0664 Z M47.6406,32.0781 L20.1992,32.0781 C18.6367,32.0781 17.5137,33.2012 17.5137,34.666 C17.5137,36.2285 18.6367,37.4004 20.1992,37.4004 L47.6406,37.4004 C49.1543,37.4004 50.2773,36.2285 50.2773,34.666 C50.2773,33.2012 49.1543,32.0781 47.6406,32.0781 Z M47.6406,19.041 L20.1992,19.041 C18.6367,19.041 17.5137,20.2129 17.5137,21.6777 C17.5137,23.1914 18.6367,24.3633 20.1992,24.3633 L47.6406,24.3633 C49.1543,24.3633 50.2773,23.1914 50.2773,21.6777 C50.2773,20.2129 49.1543,19.041 47.6406,19.041 Z" id="Shape"></path>
                </g>
                <g id="Regular-S" transform="translate(907.560000, 2.000000)">
                    <path d="M53.5,0.6328 C61.7031,0.6328 65.8047,4.7832 65.8047,13.084 L65.8047,13.084 L65.8047,70.50586 C65.8047,78.85547 61.7031,82.95703 53.5,82.95703 L53.5,82.95703 L13.0215,82.95703 C4.8184,82.95703 0.76562,78.85547 0.76562,70.50586 L0.76562,70.50586 L0.76562,13.084 C0.76562,4.7832 4.8184,0.6328 13.0215,0.6328 L13.0215,0.6328 Z M32.4062,45.1152 L19.125,45.1152 C17.5625,45.1152 16.4395,46.2871 16.4395,47.8008 C16.4395,49.2656 17.5625,50.3887 19.125,50.3887 L32.4062,50.3887 C33.9199,50.3887 35.043,49.2656 35.043,47.8008 C35.043,46.2871 33.9199,45.1152 32.4062,45.1152 Z M47.4941,31.7852 L19.125,31.7852 C17.5625,31.7852 16.4395,32.957 16.4395,34.4219 C16.4395,35.8867 17.5625,37.1074 19.125,37.1074 L47.4941,37.1074 C49.0078,37.1074 50.1309,35.8867 50.1309,34.4219 C50.1309,32.957 49.0078,31.7852 47.4941,31.7852 Z M47.4941,18.5039 L19.125,18.5039 C17.5625,18.5039 16.4395,19.627 16.4395,21.0918 C16.4395,22.6055 17.5625,23.7773 19.125,23.7773 L47.4941,23.7773 C49.0078,23.7773 50.1309,22.6055 50.1309,21.0918 C50.1309,19.627 49.0078,18.5039 47.4941,18.5039 Z" id="Shape"></path>
                </g>
                <g id="Light-S" transform="translate(611.480000, 2.000000)">
                    <path d="M53.0605,0.9258 C60.6777,0.9258 64.5352,4.832 64.5352,12.5469 L64.5352,12.5469 L64.5352,71.04297 C64.5352,78.80664 60.6777,82.71289 53.0605,82.71289 L53.0605,82.71289 L12.2891,82.71289 C4.623,82.71289 0.76562,78.80664 0.76562,71.04297 L0.76562,71.04297 L0.76562,12.5469 C0.76562,4.832 4.6719,0.9258 12.2891,0.9258 L12.2891,0.9258 Z M32.0156,44.7734 L17.9043,44.7734 C16.6348,44.7734 15.7559,45.7012 15.7559,46.873 C15.7559,48.0449 16.6348,48.9727 17.9043,48.9727 L32.0156,48.9727 C33.2363,48.9727 34.1641,48.0449 34.1641,46.873 C34.1641,45.7012 33.2363,44.7734 32.0156,44.7734 Z M47.4453,31.3457 L17.9043,31.3457 C16.6348,31.3457 15.7559,32.2734 15.7559,33.4453 C15.7559,34.666 16.6348,35.5938 17.9043,35.5938 L47.4453,35.5938 C48.666,35.5938 49.5938,34.666 49.5938,33.4453 C49.5938,32.2734 48.666,31.3457 47.4453,31.3457 Z M47.4453,17.9668 L17.9043,17.9668 C16.6348,17.9668 15.7559,18.8945 15.7559,20.0664 C15.7559,21.2871 16.6348,22.2148 17.9043,22.2148 L47.4453,22.2148 C48.666,22.2148 49.5938,21.2871 49.5938,20.0664 C49.5938,18.8945 48.666,17.9668 47.4453,17.9668 Z" id="Shape"></path>
                </g>
                <g id="Thin-S" transform="translate(315.578000, 3.000000)">
                    <path d="M52.4258,0.3164 C59.3594,0.3164 62.9238,3.9297 62.9238,10.8633 L62.9238,10.8633 L62.9238,70.77539 C62.9238,77.75781 59.3594,81.37109 52.4258,81.37109 L52.4258,81.37109 L11.2637,81.37109 C4.3789,81.37109 0.76562,77.75781 0.76562,70.77539 L0.76562,70.77539 L0.76562,10.8633 C0.76562,3.9297 4.4277,0.3164 11.2637,0.3164 L11.2637,0.3164 Z M31.5273,43.2852 L16.3418,43.2852 C15.4629,43.2852 14.877,43.9199 14.877,44.7012 C14.877,45.4824 15.4629,46.1172 16.3418,46.1172 L31.5273,46.1172 C32.3574,46.1172 32.9922,45.4824 32.9922,44.7012 C32.9922,43.9199 32.3574,43.2852 31.5273,43.2852 Z M47.3965,29.8086 L16.3418,29.8086 C15.4629,29.8086 14.877,30.3945 14.877,31.1758 C14.877,32.0059 15.4629,32.6406 16.3418,32.6406 L47.3965,32.6406 C48.2266,32.6406 48.8613,32.0059 48.8613,31.1758 C48.8613,30.3945 48.2266,29.8086 47.3965,29.8086 Z M47.3965,16.2832 L16.3418,16.2832 C15.4629,16.2832 14.877,16.918 14.877,17.6992 C14.877,18.4805 15.4629,19.1152 16.3418,19.1152 L47.3965,19.1152 C48.2266,19.1152 48.8613,18.4805 48.8613,17.6992 C48.8613,16.918 48.2266,16.2832 47.3965,16.2832 Z" id="Shape"></path>
                </g>
                <g id="Ultralight-S" transform="translate(19.281000, 3.000000)">
                    <path d="M52.084,0.5117 C58.627,0.5117 62.0938,3.9785 62.0938,10.5215 L62.0938,10.5215 L62.0938,71.16602 C62.0938,77.70898 58.627,81.17578 52.084,81.17578 L52.084,81.17578 L10.7266,81.17578 C4.2324,81.17578 0.76562,77.70898 0.76562,71.16602 L0.76562,71.16602 L0.76562,10.5215 C0.76562,3.9785 4.3301,0.5117 10.7266,0.5117 L10.7266,0.5117 Z M31.2832,43.041 L15.5117,43.041 C14.877,43.041 14.3887,43.5293 14.3887,44.1152 C14.3887,44.7012 14.877,45.1406 15.5117,45.1406 L31.2832,45.1406 C31.918,45.1406 32.4062,44.7012 32.4062,44.1152 C32.4062,43.5293 31.918,43.041 31.2832,43.041 Z M47.3477,29.4668 L15.5117,29.4668 C14.877,29.4668 14.3887,29.9551 14.3887,30.541 C14.3887,31.127 14.877,31.6152 15.5117,31.6152 L47.3477,31.6152 C47.9824,31.6152 48.4707,31.127 48.4707,30.541 C48.4707,29.9551 47.9824,29.4668 47.3477,29.4668 Z M47.3477,15.9414 L15.5117,15.9414 C14.877,15.9414 14.3887,16.3809 14.3887,16.9668 C14.3887,17.5527 14.877,18.041 15.5117,18.041 L47.3477,18.041 C47.9824,18.041 48.4707,17.5527 48.4707,16.9668 C48.4707,16.3809 47.9824,15.9414 47.3477,15.9414 Z" id="Shape"></path>
                </g>
            </g>
        </g>
    </g>
</svg>